<svg width="138" height="108" fill="none" xmlns="http://www.w3.org/2000/svg"><g clip-path="url(#clip0)"><path d="M67.298 106.799a4.888 4.888 0 01-.217-.228.976.976 0 01-.225-.438h.058l.027-.125a12.107 12.107 0 00-.288-6.126 11.969 11.969 0 00-3.246-5.174.132.132 0 00.016-.029c.786-2.398.835-4.983.14-7.41a21.507 21.507 0 001.89-2.878c1.95-1.511 3.974-3.699 4.598-6.54.07-.309.124-.62.16-.935.158-.162.385-.512.146-1.151a1.116 1.116 0 00-.153-.275l-.037-.042a.812.812 0 00-.059-.06l-.041-.035-.064-.045-.045-.028-.068-.034-.043-.02-.077-.025-.038-.011a.972.972 0 00-.108-.023 1.682 1.682 0 00-.722.073s-.574 1.008-.35 1.393c-.173.223-.637.82-1.275 1.586a8.854 8.854 0 00-.19-1.91 8.345 8.345 0 00-.234-.919c.085-.213.144-.627-.334-1.109a1.094 1.094 0 00-.125-.108l-.041-.028a.922.922 0 00-.085-.051l-.05-.023a.789.789 0 00-.077-.03l-.051-.015-.077-.017h-.175l-.081.008h-.04a.887.887 0 00-.109.026 1.7 1.7 0 00-.628.369s-.111 1.159.25 1.416c-.168.665-1.011 4.037-2.127 6.785-.374.328-.766.633-1.175.915v-.249a1.312 1.312 0 000-.137 1.317 1.317 0 00-.02-.131l.02-.012.086-.048.124-.078.08-.052c.06-.042.117-.085.172-.13l.066-.057c.04-.034.076-.07.114-.105l.055-.078c.045-.047.09-.097.132-.148l.046-.057c.04-.05.079-.105.115-.162l.046-.07c.033-.05.064-.105.094-.16l.029-.053c.036-.07.07-.14.102-.213l.025-.065c.024-.058.045-.118.064-.18 0-.02.014-.041.02-.062a2.62 2.62 0 00.061-.24c0-.016 0-.032.008-.048a3.37 3.37 0 00.032-.208v-.072c0-.085.013-.17.013-.26 0-.488-.124-.968-.36-1.393l.132-.036.097-.03c.037-.014.055-.025.05-.033a6.12 6.12 0 00-.21-.27l-.07-.08c-.05-.059-.101-.115-.16-.162l-.081-.084c-.052-.05-.102-.1-.16-.148l-.08-.072c-.063-.057-.127-.109-.192-.162l-.042-.034a4.342 4.342 0 00-.234-.162l-.09-.055a2.185 2.185 0 00-.159-.092l-.103-.055-.145-.07-.107-.05a2.064 2.064 0 00-.16-.06l-.097-.035c-.078-.026-.16-.048-.234-.07l-.121-.027-.13-.027-.13-.021-.12-.015-.133-.011h-.251c-.074 0-.148.004-.221.011-1.735.144-3.252 1.68-3.252 4.12v2.027h2.71v.918c-.487.228-.9.593-1.19 1.051a2.88 2.88 0 00-.442 1.535v7.82l-2.275 10.718h-.011v.029l-.446 2.017 3.38.549a.177.177 0 00.107-.203.64.64 0 00-.04-.161 2.757 2.757 0 00-.193-.385c-.12-.209-.261-.432-.357-.634a1.257 1.257 0 01-.132-.498l2.488-8.293h-.011l.059-.195s3.175 1.38 3.985 4.14c.661 2.237.25 3.687.071 4.156h-.01v.028a2 2 0 01-.061.139h.06v1.518h3.432c.261-.135-.137-.473-.475-.807z" fill="url(#paint0_linear)"/><path d="M61.623 90.43s5.92-6.314 3.985-12.38l-1.552.323s-2.084 8.89-4.304 10.166c-2.22 1.276 1.871 1.89 1.871 1.89z" fill="#3949AB"/><path opacity=".05" d="M61.623 90.43s5.92-6.314 3.985-12.38l-1.552.323s-2.084 8.89-4.304 10.166c-2.22 1.276 1.871 1.89 1.871 1.89z" fill="#000"/><path opacity=".2" d="M65.372 78.19l.258-.053c1.929 6.067-3.984 12.38-3.984 12.38l-.182-.031c.682-.76 5.708-6.638 3.908-12.296z" fill="#fff"/><path d="M65.538 78.208s.43-.543-.244-1.224c-.674-.68-1.5.126-1.5.126s-.118 1.208.28 1.398c.396.191 1.464-.3 1.464-.3z" fill="#985454"/><path opacity=".2" d="M65.365 78.248s.43-.543-.244-1.224a.843.843 0 00-.72-.266.842.842 0 01.892.23c.674.681.244 1.225.244 1.225-.318.144-.65.252-.992.323a5.16 5.16 0 00.82-.288z" fill="#fff"/><path d="M127.342 0H8.21C5.79 0 3.827 1.99 3.827 4.446v69.966c0 2.455 1.963 4.446 4.383 4.446h119.132c2.421 0 4.383-1.99 4.383-4.446V4.446c0-2.456-1.962-4.446-4.383-4.446z" fill="url(#paint1_linear)"/><path d="M125.481.803H9.662c-2.42 0-4.383 1.99-4.383 4.446v67.102c0 2.455 1.962 4.445 4.383 4.445h115.819c2.421 0 4.384-1.99 4.384-4.445V5.249c0-2.455-1.963-4.446-4.384-4.446z" fill="#fff"/><path d="M18.639 12.732h-3.631V23.19h3.63V12.732zM23.285 12.732h-3.63V23.19h3.63V12.732zM27.932 12.732H24.3V23.19h3.63V12.732zM36.063 12.732h-3.63V23.19h3.63V12.732zM40.71 12.732h-3.63V23.19h3.63V12.732zM45.356 12.732h-3.63V23.19h3.63V12.732zM53.488 12.732h-3.63V23.19h3.63V12.732zM58.134 12.732h-3.63V23.19h3.63V12.732zM62.78 12.732h-3.63V23.19h3.63V12.732zM70.913 12.732h-3.631V23.19h3.63V12.732zM75.559 12.732h-3.631V23.19h3.63V12.732zM80.205 12.732h-3.63V23.19h3.63V12.732z" fill="#E0E0E0"/><path d="M46.663 65.456H15.008v4.712h31.655v-4.712z" fill="#BDBDBD"/><path d="M69.895 57.504H15.008v4.712h54.887v-4.712z" fill="#E0E0E0"/><path d="M105.263 39.657a.767.767 0 01.202-.56.77.77 0 01.534-.249h1.095V32.22h-9.755v7.63h7.925l-.001-.193z" fill="url(#paint2_linear)"/><path d="M105.999 46.818a.752.752 0 01-.534-.249.789.789 0 01-.202-.559v-.194h-7.925v7.63h9.756v-6.628h-1.095z" fill="url(#paint3_linear)"/><path d="M105.263 40.847h-7.925v3.981h7.925v-3.981z" fill="url(#paint4_linear)"/><path d="M109.836 46.016a.787.787 0 01-.445.738.759.759 0 01-.292.07h-1.092v6.629h9.755v-7.63h-7.926v.193z" fill="url(#paint5_linear)"/><path d="M108.006 32.22v6.628h1.092a.756.756 0 01.534.25.789.789 0 01.202.559v.194h7.925v-7.63h-9.753z" fill="url(#paint6_linear)"/><path d="M117.761 40.847h-7.925v3.981h7.925v-3.981z" fill="url(#paint7_linear)"/><path d="M105.296 39.733a.72.72 0 01.207-.503.696.696 0 01.496-.209h1.043v-5.89h-9.306v6.775h7.56v-.173zM105.999 46.09a.696.696 0 01-.496-.21.72.72 0 01-.207-.502v-.172h-7.56v6.776h9.304v-5.893h-1.041zM105.296 40.788h-7.56v3.534h7.56v-3.534zM109.657 45.378c0 .189-.075.37-.206.503a.7.7 0 01-.497.208h-1.042v5.891h9.303v-6.773h-7.558v.17zM107.914 33.13v5.891h1.042c.186 0 .365.075.496.209a.72.72 0 01.207.503v.171h7.56V33.13h-9.305zM117.217 40.788h-7.56v3.534h7.56v-3.534z" fill="#3949AB"/><path opacity=".2" d="M3.687 71.048l.014-.049s-.177-.025-.014.049z" fill="url(#paint8_linear)"/><path opacity=".2" d="M20.134 74.016a1.194 1.194 0 00-.062-.162c0-.016-.018-.03-.026-.047a1.007 1.007 0 00-.052-.09c-.011-.016-.024-.03-.035-.047a.884.884 0 00-.058-.068l-.041-.04a.637.637 0 00-.064-.054l-.044-.032-.07-.042-.045-.024-.08-.034-.04-.016a1.175 1.175 0 00-.113-.033 1.779 1.779 0 00-.767.021s-.731 1.095-.45 1.487l-.091-.029s-5.434 6.144-8.5 7.291a3.308 3.308 0 00-.243-.152v-1.15a1.376 1.376 0 000-.143 1.369 1.369 0 00-.022-.137l.022-.013.09-.052.133-.08.085-.056c.062-.044.123-.09.183-.139l.068-.06c.042-.035.082-.072.121-.111l.07-.07c.05-.05.096-.104.14-.161l.05-.062c.043-.053.083-.106.121-.162l.05-.074c.035-.054.068-.108.1-.161l.03-.055c.039-.073.075-.15.107-.227l.027-.068c.025-.062.048-.125.069-.189 0-.023.014-.044.022-.066.026-.083.046-.162.064-.252 0-.016 0-.034.01-.052.013-.072.025-.145.033-.22v-.074a3.027 3.027 0 00-.646-2.168c.233-.369.385-.585.385-.585a8.974 8.974 0 00-.415-.272l-.132-.08c-.09-.054-.183-.11-.273-.16l-.159-.083c-.081-.044-.16-.086-.244-.126l-.16-.073c-.077-.036-.159-.071-.23-.102l-.16-.061c-.076-.031-.16-.059-.23-.084l-.143-.049c-.078-.026-.16-.047-.234-.068l-.128-.035a5.416 5.416 0 00-.26-.057l-.092-.02a4.372 4.372 0 00-.347-.048 4.092 4.092 0 00-2.087.323c.035-.847.176-1.543.469-1.975l-.072-.024-.025.024s-.086.02-.219.044c-.042.069-.08.14-.113.215.059-.3.172-.585.333-.843l-.071-.024c.103-.107.478-.574-.026-1.337-.575-.874-1.63-.194-1.63-.194a4.585 4.585 0 00-.16.883 2.149 2.149 0 01-.175-.078 22.332 22.332 0 00-.82 5.552c-1.9 2.737-2.687 6.776-2.84 7.648l-.01.07c-.012.062-.017.096-.017.096l4.941.117v7.986l-3.605 7.711s1.363.05 3.435.323l-.57 4.126-.189 1.157h3.424c.38-.771-1.523-1.157-1.523-1.157h-.043l.743-3.849c.329.056.666.117 1.012.184a9.857 9.857 0 001.542.176 8.21 8.21 0 001.283-.056c.25 2.087-.078 3.333-.142 3.546h-.02l-.19 1.158h3.423c.332-.673-1.072-1.053-1.434-1.132l.016-.113c.176-1.302.221-2.619.135-3.93.44-.182.851-.43 1.218-.737l.048-.042.014-.015-2.55-7.253c.478-2.053-1.183-4.204-.297-5.288.886-1.085.343-2.454.246-2.689 2.39-1.06 7.234-3.718 8.592-8.32a8.8 8.8 0 00.243-.986s.685-.314.387-1.321z" fill="url(#paint9_linear)"/><path d="M4.23 72.396s-2.596 8.305 1.754 12.902l1.257-.97S4.67 75.264 6.108 73.135c-2.538-.868-1.878-.739-1.878-.739z" fill="#FF5252"/><path d="M6.025 73.128s.527-.446 0-1.25c-.528-.803-1.495-.177-1.495-.177s-.353 1.159 0 1.427c.352.269 1.495 0 1.495 0zM8.073 83.835h.212c.622 0 1.126-.51 1.126-1.141v-1.42c0-.63-.504-1.14-1.126-1.14h-.212c-.621 0-1.125.51-1.125 1.14v1.42c0 .63.504 1.141 1.125 1.141z" fill="#F6B9AD"/><path opacity=".2" d="M7.07 84.857s-2.542-8.953-1.158-11.155c.123-.022.2-.04.2-.04l.023-.023.065.023C4.766 75.79 7.334 84.855 7.334 84.855l-1.258.97-.11-.12 1.103-.848z" fill="#fff"/><path d="M8.135 81.426c1.506 0 2.727-1.238 2.727-2.766 0-1.527-1.221-2.766-2.727-2.766-1.506 0-2.727 1.239-2.727 2.766 0 1.528 1.22 2.766 2.727 2.766z" fill="#F6B9AD"/><path opacity=".2" d="M9.103 82.585v-1.204c0-.088-.01-.176-.029-.262a2.75 2.75 0 001.215-1.273 2.802 2.802 0 00.203-1.76 2.774 2.774 0 00-.89-1.524 2.706 2.706 0 00-1.621-.663h.16c.61.002 1.2.212 1.68.595.478.383.816.918.96 1.52a2.803 2.803 0 01-.168 1.796 2.75 2.75 0 01-1.225 1.31c.02.085.029.173.03.261v1.204a1.255 1.255 0 01-.415.94 1.219 1.219 0 01-.971.299 1.23 1.23 0 00.764-.416c.197-.227.306-.52.307-.823z" fill="#fff"/><path d="M5.365 92.444s5.26.602 5.455 0c.628-1.952-1.056-4.053-.21-5.082.873-1.062.21-2.5.21-2.5a2.801 2.801 0 00-.8-1.956 2.694 2.694 0 00-3.857 0 2.8 2.8 0 00-.799 1.956v7.582z" fill="#FF5252"/><path opacity=".2" d="M10.615 87.362c.874-1.062.21-2.5.21-2.5a2.8 2.8 0 00-.798-1.956 2.694 2.694 0 00-1.928-.81c-.06 0-.117 0-.176.01.691.044 1.34.354 1.813.866.474.512.737 1.188.738 1.89 0 0 .663 1.438-.21 2.5-.847 1.03.836 3.132.21 5.082-.061.185-.603.257-1.323.266.889.01 1.603-.051 1.672-.266.637-1.952-1.052-4.053-.208-5.082z" fill="#fff"/><path d="M9.707 92.267c1.924 2.761 2.768 6.93 2.22 10.943l-.016.12h-1.643s.508-1.517 0-4.194a6.64 6.64 0 00-2.487-4.014l-1.58 8.208H4.674L6.2 92.267h3.507zM18.951 76.357s.638-.27.36-1.195c-.277-.925-1.378-.614-1.378-.614s-.671 1.004-.413 1.364c.258.36 1.431.445 1.431.445z" fill="#F6B9AD"/><path d="M9.618 85.306s8.17-2.685 9.333-8.95l-1.514-.47s-6.014 6.81-8.557 6.858c-2.544.048.738 2.562.738 2.562z" fill="#FF5252"/><path opacity=".2" d="M18.668 76.363l.252.08c-1.157 6.265-9.33 8.95-9.33 8.95l-.144-.114c.96-.343 8.143-3.072 9.222-8.916z" fill="#fff"/><g opacity=".2" fill="#fff"><path opacity=".2" d="M7.432 95.12l-1.582 8.208h.35l1.537-7.968a3.783 3.783 0 00-.305-.24zM9.707 92.267h-.35c1.925 2.761 2.77 6.93 2.221 10.943l-.016.12h.35l.015-.12c.545-4.012-.307-8.183-2.22-10.943z"/></g><path opacity=".2" d="M18.778 76.308s.637-.27.36-1.194a.858.858 0 00-.505-.584c.16.03.309.105.428.217.12.112.205.257.246.417.272.924-.36 1.194-.36 1.194a4.708 4.708 0 01-1.024-.195c.28.072.566.12.855.145z" fill="#fff"/><path d="M5.365 92.141l-3.309 7.082a40.46 40.46 0 015.76.709c3.667.708 5.412-1.063 5.412-1.063l-2.364-6.726-5.499-.002z" fill="#263238"/><path d="M6.245 103.296s1.753.354 1.396 1.062H4.5l.175-1.062h1.57zM11.83 103.296s1.753.354 1.396 1.062h-3.142l.176-1.062h1.57z" fill="#FF5252"/><path d="M10.609 76.386s-4.19 6.018-2.27 8.49l-7.506-.178s2.095-13.623 9.776-8.312z" fill="#FCCC63"/><path opacity=".2" d="M10.609 76.386c-1.082-.749-2.053-1.12-2.923-1.208a7.348 7.348 0 012.05 1.032s-4.188 6.018-2.269 8.498L.86 84.546c-.017.1-.025.162-.025.162l7.506.178c-1.923-2.482 2.268-8.5 2.268-8.5zM10.862 92.141h-.518l2.364 6.727s-1.129 1.141-3.473 1.224c2.7.087 3.996-1.224 3.996-1.224l-2.369-6.727zM6.245 103.296h-.349s1.753.354 1.396 1.062h.343c.355-.708-1.39-1.062-1.39-1.062zM11.83 103.296h-.349s1.753.354 1.396 1.062h.35c.348-.708-1.397-1.062-1.397-1.062z" fill="#fff"/><path opacity=".2" d="M131.438 73.282l.016.039c.127-.084-.016-.039-.016-.039z" fill="url(#paint10_linear)"/><path opacity=".2" d="M133.445 102.982l2.768-.808-.588-1.694-.008-.025h-.009l-3.086-9.08-.797-6.798a2.788 2.788 0 00-.043-.257c2.52-4.378 0-10.47-.225-11-.029.019-.073.044-.137.08a3.815 3.815 0 00-.22-.71s-.932-.456-1.321.324c-.34.677.011 1.025.108 1.102l-.056.028c.157.195.277.419.354.66a1.517 1.517 0 00-.115-.163c-.111 0-.185-.014-.185-.014l-.022-.018-.056.028c.353.409.549 1.177.638 2.116a2.991 2.991 0 00-.391-.365 3.048 3.048 0 00-2.127-.615l-.139.016c-.079.011-.156.026-.233.044l-.057.013-.097.026-.112.035-.08.028-.137.055-.051.022a1.64 1.64 0 00-.159.083c-.179.116-.37.213-.569.29l-.083.019a.989.989 0 01-.673-.11l-.068-.042a.952.952 0 01-.077-.057.46.46 0 000 .196.592.592 0 00.364.436.46.46 0 00.255.023l-.016.01a1.292 1.292 0 01-.117.066h-.008a1.492 1.492 0 01-.822.152l-.077-.01c-.038 0-.076-.011-.113-.021.015.025.031.05.048.073l.018.02.036.046.021.023.04.04.022.021.048.039.019.014.07.047.024.013.051.028.034.014.044.02.037.013.045.014.036.012.051.01.062.012h.345a.854.854 0 00.251-.095c-.049.03-.1.058-.159.085l-.076.04-.08.038-.078.036-.081.034-.079.03-.084.031-.078.026-.089.027-.075.021-.098.025-.07.016-.111.02-.059.01-.169.023a.733.733 0 01.279.108c.054.03.112.053.172.068a.628.628 0 00.08 0h.164l.084-.011h.14c.161-.003.32.029.467.092.078.038.15.087.212.147a2.627 2.627 0 00-.055.13c-.018.043-.029.076-.042.113a2.544 2.544 0 00-.116 1.103c0 .053.014.106.024.16l.008.045c.008.042.018.083.028.124v.032c.014.051.029.101.045.15l.011.03c.014.04.029.081.045.121l.014.036c.041.096.088.19.14.28l.016.027c.025.04.05.08.077.12v.01c.031.045.063.088.096.13v.01c.03.039.062.076.095.113l.011.013a2.479 2.479 0 00.942.643 1.13 1.13 0 000 .117c-.002.04-.002.08 0 .12l.109.927a2.88 2.88 0 00-.144.108c-2.287-.74-6.35-7.447-6.35-7.447l-.078.01c.287-.278-.15-1.28-.15-1.28a1.47 1.47 0 00-.637-.133h-.223l-.032.01h-.021l-.034.014h-.017l-.049.026-.047.029-.016.011-.032.024-.017.015-.027.026-.018.018-.025.027-.018.02-.025.032-.016.02-.026.041-.012.02c-.013.02-.024.042-.037.064-.389.776.131 1.12.131 1.12.002.281.02.561.054.84.569 5.184 6.501 8.542 6.804 8.71-.084.338-.766 3.327.797 6.765l.016.023a10.52 10.52 0 00-2.298 4.837 10.603 10.603 0 00.371 5.356l.035.105h.051a.784.784 0 01-.046.2.984.984 0 01-.105.204c-.047.069-.102.14-.16.213l-.06.076c-.246.301-.493.594-.274.674l.159-.019 2.85-.285-.16-1.319h.053s-.025-.039-.067-.113v-.024h-.009c-.204-.39-.708-1.609-.359-3.621.43-2.485 3.051-4.016 3.051-4.016l.07.162h-.01l3.005 6.951v.087c-.002.07-.01.139-.024.207-.01.055-.024.109-.042.162-.1.296-.293.647-.365.91-.01.036-.018.072-.024.108a.375.375 0 000 .125c.007.026.02.05.038.068a.15.15 0 00.068.039l.038-.012.083-.024.005-.013zm-3.226-20.418a2.356 2.356 0 00-.177-.066l-.101-.868a1.18 1.18 0 00-.041-.195c.175-.114.336-.249.478-.403a48.418 48.418 0 01-.159 1.532z" fill="url(#paint11_linear)"/><path d="M119.962 76.423s-.576-.38-.146-1.24c.431-.86 1.465-.356 1.465-.356s.478 1.111.16 1.418c-.319.307-1.479.178-1.479.178z" fill="#CA7070"/><path d="M128.817 105.428l-2.408.288a.812.812 0 01-.16.646c-.28.419-.878.956-.553 1.075l3.304-.396-.183-1.613z" fill="#00695C"/><path opacity=".2" d="M126.43 106.349a.812.812 0 00.16-.646l-.176.021a.81.81 0 01-.159.646c-.281.419-.878.956-.553 1.076l.175-.022c-.324-.119.274-.656.553-1.075z" fill="#fff"/><path d="M137.334 103.895l-2.214.647c.094.264.091.554-.008.816-.185.549-.662 1.282-.319 1.384l3.201-.926-.66-1.921zM132.711 73.798s3.539 7.937-.252 13.021l-1.361-.82s1.507-9.308-.17-11.25c2.424-1.153 1.783-.951 1.783-.951z" fill="#00695C"/><path d="M131.015 74.739s-.575-.38-.145-1.24c.431-.86 1.465-.356 1.465-.356s.478 1.11.159 1.418c-.318.307-1.479.178-1.479.178z" fill="#CA7070"/><path opacity=".2" d="M135.287 105.337c.099-.262.102-.552.008-.816l2.048-.596-.009-.028-2.214.647c.094.264.091.554-.008.816-.185.548-.662 1.282-.319 1.384l.134-.039c-.258-.152.182-.844.36-1.368z" fill="#fff"/><path d="M129.792 81.934l-.21.025a1.138 1.138 0 00-.986 1.267l.165 1.41a1.128 1.128 0 001.249 1l.211-.026a1.138 1.138 0 00.985-1.267l-.164-1.41a1.129 1.129 0 00-1.25-1z" fill="#CA7070"/><path opacity=".2" d="M131.334 86.51s1.487-9.193-.14-11.212a1.14 1.14 0 01-.204-.016l-.025-.02-.063.03c1.677 1.94.171 11.25.171 11.25l1.361.819c.032-.044.064-.087.094-.133l-1.194-.717z" fill="#fff"/><path d="M129.88 83.226c1.496-.18 2.565-1.555 2.388-3.072-.176-1.517-1.532-2.601-3.028-2.422-1.496.18-2.565 1.554-2.388 3.071.177 1.517 1.532 2.602 3.028 2.423z" fill="#CA7070"/><path opacity=".2" d="M129.052 84.496l-.139-1.196a1.29 1.29 0 010-.263 2.741 2.741 0 01-1.354-1.12 2.8 2.8 0 01.301-3.342 2.722 2.722 0 011.531-.852l-.159.013a2.71 2.71 0 00-1.603.789 2.799 2.799 0 00-.405 3.391c.316.53.799.936 1.37 1.154a1.29 1.29 0 000 .264l.139 1.196a1.244 1.244 0 00.52.884 1.215 1.215 0 00.999.182 1.225 1.225 0 01-.802-.323 1.254 1.254 0 01-.398-.777z" fill="#fff"/><path d="M133.904 93.842s-5.154 1.224-5.42.647c-1.844-4.042-.876-7.53-.876-7.53a2.794 2.794 0 01.567-2.039c.223-.285.498-.523.811-.7a2.696 2.696 0 013.022.243 2.764 2.764 0 011.019 1.849l.877 7.53z" fill="#00695C"/><path d="M133.904 93.842l3.634 10.703-2.359.283-3.395-7.858s-2.903 1.696-3.379 4.447c-.477 2.752.478 4.165.478 4.165l-2.522.31-.04-.116a11.666 11.666 0 01-.404-5.933 11.568 11.568 0 012.571-5.345" fill="#263238"/><path opacity=".2" d="M128.794 94.455c-1.845-4.042-.877-7.53-.877-7.53-.081-.698.102-1.401.514-1.966a2.722 2.722 0 011.7-1.079c-.059 0-.116 0-.175.015a2.697 2.697 0 00-1.013.333 2.757 2.757 0 00-1.294 1.662c-.098.35-.126.716-.084 1.076 0 0-.968 3.486.876 7.53.094.206.815.182 1.703.065-.718.076-1.269.071-1.35-.106z" fill="#fff"/><path d="M127.563 86.921s-7.566-4.124-7.6-10.498l1.572-.19s4.716 7.79 7.211 8.3c2.494.511-1.183 2.388-1.183 2.388z" fill="#00695C"/><g opacity=".2" fill="#fff"><path opacity=".2" d="M131.855 97.162l3.333 7.715.349-.042-3.395-7.859s-.108.06-.287.186zM128.843 94.493l-.349.042a11.568 11.568 0 00-2.571 5.345c-.38 1.979-.24 4.025.405 5.933l.04.116.349-.042-.04-.116a11.666 11.666 0 01-.405-5.933 11.568 11.568 0 012.571-5.345z"/></g><path opacity=".2" d="M120.234 76.48l-.261.03c.033 6.375 7.599 10.498 7.599 10.498l.16-.087c-.874-.507-7.466-4.496-7.498-10.441z" fill="#fff"/><path d="M127.255 79.516c.217.323.319.703.445 1.066.269.749.744 1.472 1.465 1.789.398.16.828.226 1.256.19.649-.035 1.332-.247 1.736-.764a2.31 2.31 0 00.419-1.19 3.886 3.886 0 00-.273-1.869 3.818 3.818 0 00-1.12-1.508c-.998-.776-2.447-.931-3.55-.324-.198.13-.409.239-.629.324a1.09 1.09 0 01-.997-.209.628.628 0 00.157.537.61.61 0 00.521.187 1.684 1.684 0 01-1.287.227c.148.237.379.41.646.483.268.074.553.043.799-.087a3.688 3.688 0 01-1.529.51c.113-.01.357.172.499.196.174.008.349 0 .523-.024a1.004 1.004 0 01.919.466z" fill="#263238"/><g opacity=".2" fill="#fff"><path opacity=".2" d="M126.683 77.745c-.189.122-.4.205-.621.243.283-.019.557-.11.797-.264a.607.607 0 01-.475-.143.618.618 0 01-.217-.452 1.013 1.013 0 01-.159-.108.614.614 0 00.394.693c.09.033.186.044.281.031zM127.177 77.209c.221-.085.432-.194.63-.324a3 3 0 011.018-.338 3.033 3.033 0 00-1.192.358c-.198.13-.409.238-.629.323-.031.01-.063.015-.093.021.09-.002.18-.015.266-.04zM125.987 79.056c-.142-.024-.386-.206-.499-.195a3.68 3.68 0 001.528-.511.965.965 0 01-.342.116 3.69 3.69 0 01-1.362.416c.114-.011.358.171.499.195.123.015.246.01.367-.014a.749.749 0 01-.191-.007zM130.597 82.54a2.733 2.733 0 01-1.256-.19c-.721-.324-1.196-1.04-1.465-1.788-.131-.364-.227-.749-.445-1.067a1.005 1.005 0 00-.921-.466c-.087.001-.174.01-.26.024h.086a1.002 1.002 0 01.921.466c.217.323.319.703.445 1.067.269.748.744 1.47 1.465 1.788.398.161.828.226 1.256.19.1 0 .202-.016.304-.03l-.13.006zM126.562 78.473a1.118 1.118 0 01-.956-.469 1.586 1.586 0 01-.21-.032c.121.193.298.345.506.434a1.1 1.1 0 00.66.067z"/></g><path opacity=".2" d="M120.137 76.402s-.575-.38-.145-1.24a.847.847 0 01.601-.485.849.849 0 00-.775.501c-.432.86.145 1.24.145 1.24.346.039.695.039 1.041 0a5.144 5.144 0 01-.867-.016z" fill="#fff"/><path d="M64.296 105.468h2.425a.821.821 0 00.23.633c.326.383.981.843.674 1.002h-3.329v-1.635z" fill="#3949AB"/><path opacity=".2" d="M66.769 106.101a.817.817 0 01-.23-.633h.175a.82.82 0 00.23.633c.327.383.982.843.674 1.002h-.175c.312-.159-.343-.619-.674-1.002z" fill="#fff"/><path d="M55.66 104.961l2.273.376c-.062.274-.025.561.104.809.247.522.797 1.193.47 1.337l-3.285-.539.438-1.983z" fill="#3949AB"/><path opacity=".2" d="M57.862 106.149a1.187 1.187 0 01-.104-.808l-2.104-.35v-.027l2.273.377c-.062.273-.025.56.104.808.247.522.797 1.193.47 1.337l-.137-.023c.253-.181-.266-.816-.502-1.314z" fill="#fff"/><path d="M60.613 85.96h.212c.621 0 1.125-.512 1.125-1.142v-1.42c0-.63-.504-1.14-1.125-1.14h-.212c-.622 0-1.125.51-1.125 1.14v1.42c0 .63.503 1.141 1.125 1.141z" fill="#985454"/><path d="M60.675 83.55c1.506 0 2.727-1.238 2.727-2.765 0-1.528-1.22-2.766-2.727-2.766-1.506 0-2.727 1.238-2.727 2.766 0 1.527 1.22 2.766 2.727 2.766z" fill="#985454"/><path opacity=".2" d="M61.642 84.715V83.51c0-.088-.01-.176-.029-.262a2.749 2.749 0 001.215-1.273 2.801 2.801 0 00.203-1.76 2.773 2.773 0 00-.89-1.524 2.706 2.706 0 00-1.621-.663h.16c.61 0 1.205.21 1.685.593s.82.92.964 1.522a2.802 2.802 0 01-.17 1.801 2.75 2.75 0 01-1.232 1.31c.02.085.029.173.03.261v1.2a1.253 1.253 0 01-.415.94 1.218 1.218 0 01-.971.298 1.23 1.23 0 00.764-.416c.197-.227.306-.52.307-.823z" fill="#fff"/><path d="M57.905 94.576s5.26.603 5.454 0c1.363-4.237 0-7.584 0-7.584a2.8 2.8 0 00-.799-1.956 2.723 2.723 0 00-1.928-.81c-.72 0-1.412.29-1.923.805a2.786 2.786 0 00-.804 1.947v7.598z" fill="#3949AB"/><path d="M57.905 94.576l-2.375 11.062h2.375l2.462-8.207s3.08 1.338 3.87 4.014c.79 2.675 0 4.193 0 4.193h2.55l.026-.119c.42-1.972.322-4.02-.284-5.94a11.52 11.52 0 00-3.172-5.003" fill="#263238"/><path opacity=".2" d="M63.05 94.576c1.363-4.237 0-7.584 0-7.584 0-.702-.264-1.378-.737-1.89a2.712 2.712 0 00-1.813-.87h.175c.72 0 1.41.29 1.921.803.511.515.801 1.213.807 1.943 0 0 1.362 3.345 0 7.583-.07.215-.79.277-1.684.267.726-.003 1.27-.073 1.331-.252z" fill="#fff"/><g opacity=".2" fill="#fff"><path opacity=".2" d="M60.322 97.618l-2.419 8.057h-.352l2.463-8.207s.118.05.307.15zM63.005 94.613h.353a11.522 11.522 0 013.171 5.002c.607 1.921.705 3.97.284 5.941l-.025.119h-.352l.025-.119c.42-1.971.322-4.02-.284-5.94a11.522 11.522 0 00-3.172-5.003z"/></g><path d="M61.316 86.939s7.96-3.274 8.67-9.607l-1.542-.36s-5.517 7.23-8.051 7.463c-2.535.233.923 2.504.923 2.504z" fill="#3949AB"/><path opacity=".2" d="M69.71 77.359l.256.06c-.71 6.334-8.67 9.607-8.67 9.607l-.16-.105c.94-.409 7.91-3.661 8.573-9.562z" fill="#fff"/><path d="M69.853 77.44s.612-.315.276-1.218c-.337-.901-1.42-.512-1.42-.512s-.598 1.05-.318 1.392c.28.341 1.462.338 1.462.338z" fill="#985454"/><path opacity=".2" d="M69.68 77.404s.612-.315.276-1.217a.859.859 0 00-.547-.543.848.848 0 01.443.185.866.866 0 01.275.398c.338.902-.276 1.218-.276 1.218a4.704 4.704 0 01-1.035-.12c.286.05.575.077.864.08z" fill="#fff"/><path d="M60.871 79.865l-.16 3.718h-3.847V81.62c0-3.964 4.132-5.469 6.459-2.282.057.077-2.452.527-2.452.527z" fill="#263238"/><path opacity=".2" d="M60.017 77.627c.98.083 1.986.623 2.781 1.712.057.078-2.444.532-2.444.532l-.175 3.718h.532l.176-3.718s2.5-.453 2.443-.532c-.947-1.285-2.177-1.807-3.313-1.712z" fill="#fff"/></g><defs><linearGradient id="paint0_linear" x1="62.725" y1="107.998" x2="62.725" y2="74" gradientUnits="userSpaceOnUse"><stop stop-color="gray" stop-opacity=".25"/><stop offset=".54" stop-color="gray" stop-opacity=".12"/><stop offset="1" stop-color="gray" stop-opacity=".1"/></linearGradient><linearGradient id="paint1_linear" x1="54388.5" y1="38466.7" x2="54388.5" y2="0" gradientUnits="userSpaceOnUse"><stop stop-color="gray" stop-opacity=".25"/><stop offset=".54" stop-color="gray" stop-opacity=".12"/><stop offset="1" stop-color="gray" stop-opacity=".1"/></linearGradient><linearGradient id="paint2_linear" x1="102.215" y1="39.851" x2="102.215" y2="32.22" gradientUnits="userSpaceOnUse"><stop stop-opacity=".12"/><stop offset=".55" stop-opacity=".09"/><stop offset="1" stop-opacity=".02"/></linearGradient><linearGradient id="paint3_linear" x1="7984.22" y1="3453.67" x2="7984.22" y2="3093.52" gradientUnits="userSpaceOnUse"><stop stop-opacity=".12"/><stop offset=".55" stop-opacity=".09"/><stop offset="1" stop-opacity=".02"/></linearGradient><linearGradient id="paint4_linear" x1="5133.99" y1="1144.96" x2="5133.99" y2="1046.89" gradientUnits="userSpaceOnUse"><stop stop-opacity=".12"/><stop offset=".55" stop-opacity=".09"/><stop offset="1" stop-opacity=".02"/></linearGradient><linearGradient id="paint5_linear" x1="8646.48" y1="3453.69" x2="8646.48" y2="3093.53" gradientUnits="userSpaceOnUse"><stop stop-opacity=".12"/><stop offset=".55" stop-opacity=".09"/><stop offset="1" stop-opacity=".02"/></linearGradient><linearGradient id="paint6_linear" x1="8645.08" y1="2798.07" x2="8645.08" y2="2437.92" gradientUnits="userSpaceOnUse"><stop stop-opacity=".12"/><stop offset=".55" stop-opacity=".09"/><stop offset="1" stop-opacity=".02"/></linearGradient><linearGradient id="paint7_linear" x1="5767.88" y1="1144.96" x2="5767.88" y2="1046.89" gradientUnits="userSpaceOnUse"><stop stop-opacity=".12"/><stop offset=".55" stop-opacity=".09"/><stop offset="1" stop-opacity=".02"/></linearGradient><linearGradient id="paint8_linear" x1="19.405" y1="100.35" x2="19.405" y2="100.332" gradientUnits="userSpaceOnUse"><stop stop-color="gray" stop-opacity=".25"/><stop offset=".54" stop-color="gray" stop-opacity=".12"/><stop offset="1" stop-color="gray" stop-opacity=".1"/></linearGradient><linearGradient id="paint9_linear" x1="4659.13" y1="27693.8" x2="4659.13" y2="19746.3" gradientUnits="userSpaceOnUse"><stop stop-color="gray" stop-opacity=".25"/><stop offset=".54" stop-color="gray" stop-opacity=".12"/><stop offset="1" stop-color="gray" stop-opacity=".1"/></linearGradient><linearGradient id="paint10_linear" x1="197.705" y1="135.709" x2="197.703" y2="135.695" gradientUnits="userSpaceOnUse"><stop stop-color="gray" stop-opacity=".25"/><stop offset=".54" stop-color="gray" stop-opacity=".12"/><stop offset="1" stop-color="gray" stop-opacity=".1"/></linearGradient><linearGradient id="paint11_linear" x1="19032.2" y1="9873.63" x2="18332.9" y2="4039.73" gradientUnits="userSpaceOnUse"><stop stop-color="gray" stop-opacity=".25"/><stop offset=".54" stop-color="gray" stop-opacity=".12"/><stop offset="1" stop-color="gray" stop-opacity=".1"/></linearGradient><clipPath id="clip0"><path d="M0 0h138v108H0V0z" fill="#fff"/></clipPath></defs></svg>