<svg width="163" height="89" fill="none" xmlns="http://www.w3.org/2000/svg"><path d="M111.752 76.142c15.212-.18 30.423-.076 45.633.309 1.309.033 2.666.075 3.822.422 1.155.346 2.045 1.09 1.729 1.804-5.938.175-11.882.23-17.832.162-1.296.635-2.718 1.59-1.922 2.447.551.592 1.911.768 3.101.77 2.154.002 4.317-.352 6.44-.144 2.122.207 4.24 1.323 3.619 2.482-.473.88-2.264 1.316-3.894 1.393-1.63.078-3.299-.084-4.893.125-1.514.198-2.826.712-4.243 1.071-2.236.567-4.714.742-7.152.891-18.721 1.144-37.597 1.134-56.429 1.124-7.624-.004-15.35-.016-22.713-1.128-4.196-.635-8.218-1.62-12.467-2.13-5.076-.611-10.322-.528-15.513-.51a598.826 598.826 0 01-27.314-.527c-.677-.028-1.508-.125-1.691-.492-.213-.429.652-.763 1.383-.934a80.334 80.334 0 0112.603-1.88c2.15-.151 4.365-.228 6.342-.726 1.977-.497 3.704-1.54 3.685-2.757-.005-.371-.162-.768.148-1.096.411-.436 1.423-.535 2.297-.583a460.495 460.495 0 0129.142-.657c3.421.03 6.857.1 10.254-.131 2.783-.189 5.51-.576 8.252-.902 3.683-.437 19.707-2.7 22.044-.863 1.75 1.374-1.863 1.67 2.83 2.231 4.087.489 8.595.278 12.739.23z" fill="#F2F2F2"/><path d="M52.533 69.865s-5.64 11.16-.84 11.16c4.801 0 65.292.24 66.973-2.88 1.177-2.186.528-9.968.034-14.431a3.414 3.414 0 00-3.582-3.033c-13.083.722-61.957 3.398-61.745 3.064.42-.66.12-.48.12-.48s-1.92 6.12-.96 6.6z" fill="#3F3D56"/><path opacity=".1" d="M118.82 63.714a3.414 3.414 0 00-3.582-3.033c-13.082.722-61.957 3.398-61.744 3.064.42-.66.12-.48.12-.48s-.429 1.366-.78 2.858c.05-.005.087.042-.075.327l-.043.193c1.958.194 48.901-2.376 61.682-3.082a3.414 3.414 0 013.582 3.033c.367 3.318.82 8.47.544 11.794a.71.71 0 00.262-.243c1.177-2.186.528-9.968.034-14.431z" fill="#000"/><path d="M59.257 53.14c-.625-.192-1.417-.44-1.346-.843.038-.214.325-.381.533-.561.4-.346.509-.834.078-1.169-.43-.335-1.467-.38-1.846-.025-.196.182-.184.41-.285.616-.314.642-1.588.924-2.67 1.173-1.08.25-2.29.713-2.189 1.377.111.725 1.78 1.367 1.108 1.985-.243.224-.755.349-.864.605-.077.18.077.363.226.528l1.063 1.17c.423.466.858.973.717 1.49-.281 1.028-2.562 1.421-4.37 1.306-.662-.043-1.44-.1-1.895.178-.35.214-.35.548-.233.834.3.735 1.26 1.372 2.487 1.651-1.376.272-1.917 1.416-.966 2.046a2.829 2.829 0 01-1.686.049c-.47.432-.193 1.026.403 1.404.596.379 1.44.592 2.258.794l-.765.715c.553.433 1.75.28 2.556.007s1.681-.64 2.585-.498c.847.135 1.488.7 2.35.603.67-.075.987-.505 1.196-.876l.885-1.576c1.26.197 2.586-.666 2.08-1.355 1.41.151 2.8-.764 2.336-1.54.751.578 1.28 1.251 1.539 1.957.115.316.186.649.5.916a1.665 1.665 0 001.456.263c-.257.5-.465 1.08.063 1.504.529.423 2.054.303 1.987-.215.806.346 1.71.671 2.717.697 1.007.026 2.11-.357 2.201-.931 1.42.468 2.905.707 4.4.708.127-.384 1.016-.508 1.68-.414.663.093 1.28.319 1.963.32.684 0 1.42-.412 1.07-.748 1.44.302 2.918.376 4.382.221 1.38-.146 2.688-.494 4.086-.57a9.76 9.76 0 014.16.657c.458.192 1.028.434 1.531.284.285-.086.424-.27.618-.417.835-.634 2.542-.512 3.86-.263 1.317.249 2.849.548 4.003.108.435-.166.756-.422 1.22-.562 1.659-.5 3.645.78 5.406.412.574-.12 1.039-.406 1.647-.442 1.077-.063 1.789.668 2.837.825 1.087.163 2.266-.499 2.001-1.123a9.756 9.756 0 003.085-.429l-.493-.888c1.23-.02 2.134-.901 1.565-1.524 1.233-.235 2.208-.867 2.461-1.596.254-.729-.224-1.526-1.206-2.013-.58-.287-1.342-.489-1.673-.884-.239-.285-.204-.616-.297-.928-.203-.681-1.083-1.283-2.221-1.517-.494-.102-1.035-.14-1.482-.298-.447-.157-.77-.498-.512-.76.137-.138.4-.22.57-.345.69-.51-.493-1.154-1.503-1.44l2.412-.08.517-2.347c-.954.776-3.429.613-4.049-.267.775.254 1.814-.07 2.193-.533.378-.463.285-1 .184-1.508a.73.73 0 00-.402-.599c-.236-.112-.612-.159-.689-.329-.079-.173.226-.327.271-.504.087-.34-.695-.49-1.224-.655-1.247-.388-1.85-1.48-3.269-1.444-1.408.035-1.801 1.11-1.802 1.915-.001.805-.477 1.882-1.886 1.867-.563-.005-1.053-.208-1.502-.401l-4.035-1.74a9.66 9.66 0 00-1.657-.594c-.814-.19-1.713-.212-2.591-.232l-5.644-.128a2.629 2.629 0 00-.856.073c-.297.1-.44.294-.62.462-.785.737-2.633 1.026-3.967.62-.353-.108-.67-.256-1.045-.337-1.18-.256-2.418.217-3.644.388-2.01.28-4.508-.202-5.957.642-.483.281-.74.666-1.187.966-.448.3-1.256.503-1.82.277.07.55.135 1.125-.237 1.634-.373.509-1.329.924-2.268.796-.498-.132-.459-.55-.223-.834.236-.283.597-.573.48-.88-.117-.304-.65-.48-1.05-.693-.398-.212-.665-.613-.24-.81-.286-.366-1.313-.321-1.764-.014-.451.308-.496.741-.546 1.142-.049.4-.156.84-.68 1.107-.89.457-2.602.22-3.193.815-.188.19-.199.417-.306.626-.48.93-2.55 1.171-4.242 1.247a2.076 2.076 0 00-.024.588c.579-.25-.386-.76-.805-.89z" fill="#61AB43"/><path opacity=".1" d="M117.881 52.077c.101.507.194 1.045-.184 1.507-.057.067-.12.127-.19.18l1.529-.05.518-2.348c-.396.322-1.052.481-1.729.496.024.07.043.142.056.215zM118.326 54.842c-.06-.317-.583-.64-1.169-.87a2.382 2.382 0 01-1.653.146c.428.606 1.737.872 2.822.724zM119.075 56.553l-.039.18-2.412.078c1.01.286 2.193.93 1.503 1.44-.17.126-.433.207-.57.346-.258.261.065.602.512.76.447.157.988.195 1.482.297 1.138.235 2.018.836 2.221 1.518.093.311.058.643.297.927.331.396 1.093.598 1.673.885.055.028.109.057.162.086.524-.296.901-.678 1.044-1.092.254-.729-.224-1.526-1.206-2.013-.58-.287-1.342-.489-1.673-.884-.239-.285-.204-.616-.297-.928-.203-.681-1.083-1.283-2.221-1.517a9.942 9.942 0 00-.476-.083zM48.415 67.364c.187-.4.667-.755 1.356-.89a4.59 4.59 0 01-1.817-.82 2.746 2.746 0 01-.835-.104c-.47.432-.193 1.026.403 1.404.28.17.58.308.893.41zM52.669 55.663a8.03 8.03 0 011.053-.313c1.081-.25 2.355-.532 2.67-1.174.1-.205.088-.434.283-.616.38-.354 1.417-.31 1.848.026.43.334.322.822-.079 1.169-.208.18-.495.346-.533.56-.07.404.72.652 1.346.843.294.095.57.24.814.43l.015-.128c1.692-.076 3.762-.317 4.242-1.248.107-.208.118-.436.306-.625.591-.595 2.302-.358 3.194-.815.523-.268.63-.707.68-1.108.049-.4.094-.833.545-1.141.451-.308 1.478-.352 1.763.014-.424.196-.157.598.242.81.398.212.932.389 1.048.693.118.306-.243.596-.48.88-.235.283-.274.702.224.833.94.129 1.895-.287 2.268-.796.372-.509.308-1.083.237-1.634.564.227 1.372.023 1.82-.276.448-.3.704-.685 1.187-.966 1.449-.845 3.947-.362 5.957-.643 1.226-.17 2.464-.644 3.644-.388.375.081.692.23 1.045.338 1.334.406 3.182.117 3.968-.62.178-.168.322-.363.619-.462.28-.072.568-.097.856-.074l5.644.128c.878.02 1.777.043 2.591.233a9.66 9.66 0 011.657.593l4.035 1.74c.449.194.939.396 1.502.402 1.409.015 1.885-1.062 1.886-1.868.001-.805.394-1.88 1.802-1.915 1.419-.035 2.022 1.056 3.269 1.445.529.164 1.311.314 1.224.655-.04.158-.286.297-.284.448.351-.083.671-.266.92-.527.378-.463.285-1 .184-1.508a.729.729 0 00-.402-.599c-.236-.112-.612-.159-.689-.329-.079-.173.226-.327.271-.504.087-.34-.695-.49-1.224-.655-1.247-.388-1.85-1.48-3.269-1.444-1.408.035-1.801 1.11-1.802 1.915-.001.805-.477 1.882-1.886 1.867-.563-.005-1.053-.208-1.502-.401l-4.035-1.74a9.66 9.66 0 00-1.657-.594c-.814-.19-1.713-.212-2.591-.232l-5.644-.128a2.629 2.629 0 00-.856.073c-.297.1-.44.294-.62.462-.785.737-2.633 1.026-3.967.62-.353-.108-.67-.256-1.045-.337-1.18-.256-2.418.217-3.644.388-2.01.28-4.508-.202-5.957.642-.483.281-.74.666-1.187.966-.448.3-1.256.503-1.82.277.07.55.135 1.125-.237 1.634-.373.509-1.329.924-2.268.796-.498-.132-.459-.55-.223-.834.236-.283.597-.573.48-.88-.117-.304-.65-.48-1.05-.693-.398-.212-.665-.613-.24-.809-.286-.367-1.313-.322-1.764-.014-.451.307-.496.74-.546 1.141-.049.4-.156.84-.68 1.107-.89.457-2.602.22-3.193.815-.188.19-.199.417-.306.626-.48.93-2.55 1.171-4.242 1.247-.004.043-.01.085-.015.128a2.658 2.658 0 00-.814-.43c-.625-.19-1.417-.438-1.346-.842.038-.214.325-.381.533-.561.4-.346.509-.834.078-1.169-.43-.335-1.467-.38-1.846-.025-.196.182-.184.41-.285.616-.314.642-1.588.924-2.67 1.173-1.08.25-2.29.713-2.189 1.377.11.713 1.725 1.347 1.137 1.955zM49.771 63.455a2.372 2.372 0 00-.837.328c.162.007.324.017.479.027 1.807.116 4.088-.277 4.369-1.305.141-.518-.294-1.025-.717-1.49l-.51-.562c-.884.301-2.093.406-3.142.339-.663-.043-1.44-.1-1.896.178-.35.214-.35.548-.233.834.3.735 1.26 1.372 2.487 1.651z" fill="#000"/><path d="M86.59 58.758c9.943 0 18.003-5.32 18.003-11.88 0-6.562-8.06-11.88-18.003-11.88s-18.003 5.319-18.003 11.88c0 6.56 8.06 11.88 18.003 11.88z" fill="#EA565C"/><path opacity=".2" d="M80.469 46.038s-8.162.84-5.761-2.64c2.4-3.48 5.4-4.68 6.841-3.72 1.44.96 2.04 3.6 1.8 3.6s-3.72-2.04-4.92-.48c-1.2 1.56 2.04 3.24 2.04 3.24zM87.54 46.378s6.74 4.678 2.652 5.755c-4.089 1.077-7.147.033-7.615-1.633-.467-1.667.798-4.06.98-3.904.182.156 1.494 3.97 3.42 3.569 1.928-.402.564-3.787.564-3.787zM89.114 43.446s.532-8.186 3.564-5.24c3.032 2.947 3.715 6.105 2.528 7.365-1.186 1.26-3.89 1.411-3.85 1.175.04-.237 2.632-3.328 1.294-4.772-1.339-1.443-3.536 1.472-3.536 1.472z" fill="#fff"/><path d="M64.866 57.798c9.943 0 18.003-5.32 18.003-11.88 0-6.562-8.06-11.88-18.003-11.88s-18.004 5.319-18.004 11.88c0 6.56 8.06 11.88 18.004 11.88z" fill="#EA565C"/><path opacity=".2" d="M58.745 45.078s-8.162.84-5.761-2.64c2.4-3.48 5.4-4.68 6.84-3.72 1.441.96 2.041 3.6 1.801 3.6s-3.72-2.04-4.92-.48c-1.2 1.56 2.04 3.24 2.04 3.24zM65.817 45.418s6.74 4.678 2.65 5.755c-4.088 1.077-7.146.033-7.614-1.633-.467-1.667.798-4.06.98-3.904.182.156 1.494 3.97 3.42 3.569 1.928-.402.564-3.787.564-3.787zM67.39 42.486s.532-8.186 3.564-5.24c3.032 2.947 3.715 6.105 2.528 7.365-1.187 1.26-3.89 1.411-3.85 1.175.04-.237 2.632-3.328 1.293-4.772-1.338-1.443-3.535 1.472-3.535 1.472z" fill="#fff"/><path opacity=".1" d="M74.235 35.807c3.921 2.18 6.414 5.443 6.414 9.09 0 6.562-8.06 11.88-18.004 11.88-3.407 0-6.592-.624-9.309-1.709 3.132 1.74 7.175 2.79 11.59 2.79 9.943 0 18.003-5.32 18.003-11.88 0-4.313-3.483-8.09-8.694-10.17z" fill="#000"/><path opacity=".1" d="M95.96 36.647c3.92 2.18 6.413 5.443 6.413 9.09 0 6.562-8.06 11.88-18.003 11.88-3.407 0-6.593-.624-9.31-1.709 3.132 1.74 7.175 2.79 11.59 2.79 9.943 0 18.003-5.32 18.003-11.88 0-4.313-3.483-8.09-8.694-10.17z" fill="#000"/><path d="M53.925 43.642s15.483-16.56 53.41-9.72c29.982 5.407 5.362 14.713-6.27 18.375a41.79 41.79 0 01-10.403 1.873c-13.122.676-46.127 1.28-36.737-10.528z" fill="#714B4F"/><path opacity=".1" d="M101.065 48.577a41.79 41.79 0 01-10.403 1.873c-10.63.547-34.308 1.047-37.925-5.06-4.568 9.871 25.538 9.298 37.925 8.66a41.79 41.79 0 0010.403-1.873c8.526-2.684 24.029-8.4 19.894-13.392-2.785 3.917-13.377 7.74-19.894 9.792z" fill="#000"/><path opacity=".1" d="M86.991 33.982l4.201 8.28M74.029 36.982l3.6 6.96M94.552 33.982l5.642 8.28M74.029 44.662l37.807-4.8M110.396 35.542l2.64 3.72M66.587 39.862l1.68 3.48" stroke="#000" stroke-width="2" stroke-miterlimit="10"/><path d="M72.23 28.588s34.526-.156 34.843-.469c.317-.312 7.602-.477 9.027 1.553 1.426 2.03 1.901 2.967 0 3.28-1.9.312-64.458 32.326-64.458 32.326s-3.484.313-1.742-3.123c1.742-3.436 22.33-33.567 22.33-33.567z" fill="#F6C964"/><path d="M86.726 42.867c0 1.293-6.234 4.44-13.923 4.44-7.69 0-13.923-3.147-13.923-4.44 0-1.292 6.234-1.8 13.923-1.8 7.69 0 13.923.508 13.923 1.8z" fill="#61AB43"/><path d="M72.803 45.148c7.69 0 13.923-1.048 13.923-2.34 0-1.293-6.234-2.34-13.923-2.34-7.69 0-13.923 1.047-13.923 2.34 0 1.292 6.234 2.34 13.923 2.34z" fill="#61AB43"/><path d="M103.529 40.708c0 1.292-6.233 4.44-13.923 4.44-7.689 0-13.922-3.148-13.922-4.44 0-1.293 6.233-1.8 13.922-1.8 7.69 0 13.923.507 13.923 1.8z" fill="#61AB43"/><path d="M89.606 42.987c7.69 0 13.923-1.047 13.923-2.34 0-1.292-6.233-2.34-13.923-2.34-7.689 0-13.922 1.048-13.922 2.34 0 1.293 6.233 2.34 13.922 2.34z" fill="#61AB43"/><path d="M120.332 38.547c0 1.293-6.233 4.44-13.923 4.44-7.689 0-13.922-3.147-13.922-4.44 0-1.292 6.233-1.8 13.922-1.8 7.69 0 13.923.508 13.923 1.8z" fill="#61AB43"/><path d="M106.409 40.828c7.69 0 13.923-1.048 13.923-2.34 0-1.293-6.233-2.34-13.923-2.34-7.689 0-13.922 1.047-13.922 2.34 0 1.292 6.233 2.34 13.922 2.34z" fill="#61AB43"/><path d="M55.135 39.212s-5.726-.932-2.796-5.592c2.93-4.66 3.915-9.883 5.193-11.05 1.43-1.305 30.93-24.181 53.912 1.132a33.77 33.77 0 015.861 9.15c.278.633.584 1.201.884 1.5.932.933 1.731 3.595 0 4.927-1.731 1.331-52.734 6.524-63.054-.067z" fill="#3F3D56"/><path d="M81.968 19.84a2.24 2.24 0 01-1.199.4c-.662 0-1.198-.18-1.198-.4 0-.22.536-.4 1.198-.4.43.016.846.155 1.199.4zM72.38 17.31a2.24 2.24 0 01-1.199.4c-.662 0-1.198-.179-1.198-.4 0-.22.536-.399 1.198-.399.43.015.846.154 1.199.4zM98.426 20.997a2.24 2.24 0 01-1.263.023c-.632-.197-1.09-.528-1.025-.739.066-.21.631-.22 1.263-.023.406.143.761.4 1.025.739zM80.715 14.207a2.24 2.24 0 01-1.264.023c-.631-.198-1.09-.529-1.024-.739.066-.21.631-.221 1.263-.024.405.143.761.4 1.025.74zM100.024 16.603c-.41.129-.849.137-1.263.023-.632-.197-1.09-.528-1.025-.739.066-.21.631-.22 1.263-.023.406.143.761.4 1.025.74zM96.084 16.245a2.24 2.24 0 01-1.199.4c-.662 0-1.199-.18-1.199-.4 0-.22.537-.4 1.199-.4.43.016.846.155 1.198.4zM84.631 13.849a2.24 2.24 0 01-1.198.4c-.662 0-1.199-.18-1.199-.4 0-.22.537-.4 1.199-.4.43.016.845.154 1.198.4zM93.42 13.849a2.24 2.24 0 01-1.198.4c-.662 0-1.199-.18-1.199-.4 0-.22.537-.4 1.199-.4.43.016.845.154 1.198.4zM90.09 19.041a2.24 2.24 0 01-1.198.4c-.662 0-1.198-.18-1.198-.4 0-.22.536-.4 1.198-.4.43.016.846.155 1.199.4zM80.408 18.108c.1-.418.318-.798.628-1.096.494-.44 1.013-.664 1.16-.5.147.165-.134.656-.628 1.096a2.24 2.24 0 01-1.16.5zM74.415 16.644c.1-.418.318-.799.629-1.096.493-.44 1.013-.665 1.16-.5.147.165-.135.655-.628 1.096a2.24 2.24 0 01-1.16.5zM64.028 23.833c.1-.418.318-.798.629-1.095.493-.441 1.013-.665 1.16-.5.147.164-.134.655-.628 1.096a2.24 2.24 0 01-1.16.5zM87.066 15.845c.1-.418.318-.799.628-1.096.494-.44 1.014-.664 1.16-.5.147.165-.134.655-.628 1.096a2.24 2.24 0 01-1.16.5zM84.67 20.638c.1-.418.317-.799.627-1.096.494-.44 1.014-.664 1.16-.5.148.165-.134.656-.628 1.096a2.24 2.24 0 01-1.16.5z" fill="#F2F2F2"/><path d="M128.902 72.813s-1.823.547-2.735 1.64c0 0-1.641.73-2.644.547-1.002-.182-2.826 1.64-1.367 2.188 1.458.547 10.392 2.005 10.575 1.55.182-.457.182-5.105.182-5.105l-4.011-.82zM143.224 72.03s-1.703.85-2.414 2.084c0 0-1.493.998-2.512.99-1.019-.008-2.504 2.1-.973 2.389 1.53.29 10.582.2 10.684-.28.102-.48-.693-5.06-.693-5.06l-4.092-.123z" fill="#575A89"/><path d="M131.865 10.24a4.102 4.102 0 100-8.204 4.102 4.102 0 000 8.205z" fill="#FFB9B9"/><path d="M135.192 6.823s.456 3.099 1.277 3.463a6.07 6.07 0 011.549 1.094l-2.279 1.094-4.467-.274s.365-2.005-.273-3.008c-.638-1.002 4.193-2.37 4.193-2.37zM143.67 21.497s2.097 5.378 0 10.573c-2.096 5.196-3.008 6.016-3.008 6.016l-.638-6.836.734-.666s.444-2.074.083-3.302c-.361-1.227.186-5.056.186-5.056l2.643-.729z" fill="#FFB9B9"/><path d="M127.99 33.164s-2.643 6.016-2.37 8.932c.274 2.917 2.37 15.222 2.37 15.222s-.273 15.86.547 15.86c.821 0 4.741 1.458 4.741.455 0-1.002.82-25.065.82-25.065s4.65 10.573 5.105 11.393c.456.82 3.374 13.672 4.376 13.672 1.003 0 4.103-.911 3.829-1.55-.273-.638-3.373-14.856-5.105-18.502-1.732-3.646-1.367-17.41-1.367-17.41l-2.918-6.38-10.028 3.373zM130.634 4.27s-2.552-.182-2.735-.82c-.182-.638-.547-1.185-.364-1.185.182 0 .273-.455.273-.455s.183-.092.274 0c.091.09.182-.638.182-.638s.091-.274.182-.092c.092.183.092.092.183-.182.091-.273.547-.456.547-.456s1.732.092 2.005-.273c.274-.365 3.373-.091 4.011.365.639.455 3.465 2.096 3.009 3.463-.456 1.367-2.097 4.375-2.097 4.83 0 .457-.638.365-.82-.09-.183-.456-1.641-1.003-1.641-1.276 0-.274-.821-2.826-1.277-2.644-.455.183-1.002 1.641-1.185 1.368-.182-.274-.547-1.914-.547-1.914z" fill="#3F3D56"/><path d="M143.215 16.758s-3.738-5.47-4.832-5.743c-1.094-.273-3.555-1.002-3.555-1.002s-2.462.364-3.191.729c-.729.364-3.464 1.003-3.555 2.096-.092 1.094.729 11.576.273 12.579-.456 1.002-2.005 10.573-1.276 10.39.729-.182.182-2.552 3.373-2.643 3.191-.091 4.923-2.005 6.108.273 1.185 2.28 4.558 4.01 4.558 4.01.085-.734.206-1.464.365-2.187.273-1.276-.73-4.375-.73-4.375s.091-7.2.456-8.02c.365-.82 2.006-6.107 2.006-6.107z" fill="#3949AB"/><path d="M141.847 16.575l1.368.183s-.092 1.823.273 2.37c.365.546 1.003 3.372.638 3.463-.364.091-3.646.638-3.646.638l-.183-4.193 1.55-2.46z" fill="#3949AB"/><path d="M127.079 19.857s-.912 5.924-1.368 6.653c-.455.73-2.735 10.938-2.735 10.938s-3.747 5.21-1.924 5.12c1.823-.092 3.748-4.755 3.748-4.755s5.652-10.3 5.652-11.394c0-1.094 1.367-6.562 1.367-6.562h-4.74z" fill="#FFB9B9"/><path d="M129.722 11.836l-1.64.638s-2.097 7.474-1.641 8.112c.455.638 5.925-.274 6.016-.547.091-.274-1.002-8.203-2.735-8.203z" fill="#3949AB"/><path d="M14.552 61.299c0 8.88 5.572 16.066 12.458 16.066L14.55 61.3z" fill="#46455B"/><path d="M27.01 77.365c0-8.98 6.218-16.247 13.903-16.247L27.01 77.365zM19.065 62.104c0 8.436 3.554 15.261 7.945 15.261l-7.945-15.261z" fill="#3949AB"/><path d="M27.01 77.365c0-11.474 7.187-20.76 16.07-20.76l-16.07 20.76z" fill="#46455B"/><path d="M24.389 77.479s1.767-.055 2.3-.434c.532-.379 2.717-.832 2.85-.224.131.609 2.654 3.024.66 3.04-1.995.016-4.635-.31-5.167-.634-.531-.324-.643-1.748-.643-1.748z" fill="#A8A8A8"/><path opacity=".2" d="M30.234 79.65c-1.995.016-4.635-.31-5.166-.635-.405-.246-.566-1.13-.62-1.539a6.337 6.337 0 01-.06.003s.113 1.424.644 1.748c.532.324 3.172.65 5.166.634.576-.004.775-.21.764-.512-.08.183-.3.297-.728.3z" fill="#000"/></svg>