<svg width="140" height="121" fill="none" xmlns="http://www.w3.org/2000/svg"><g clip-path="url(#clip0)"><path d="M7.762 119.374s-2.27-4.181-7.762-2.373l7.762 2.373z" fill="#E6E6E6"/><path d="M7.899 119.271s-2.809-3.56 1.244-8.001l-1.245 8.001z" fill="#E6E6E6"/><path d="M140 119.11H0v.315h140v-.315z" fill="#3F3D56"/><path d="M106.241 80.68l3.032 11.76s.112 8.287.785 11.534c.674 3.248 2.919 11.087 2.919 11.087l2.695.448-.561-10.975s0-6.607-.562-8.063c-.561-1.456-1.684-16.35-1.684-16.35l-6.624.56z" fill="#FBBEBE"/><path opacity=".1" d="M106.083 79.895l3.032 11.758s.112 8.287.786 11.535c.673 3.248 2.919 11.087 2.919 11.087l2.694.448-.561-10.975s0-6.607-.561-8.063c-.562-1.456-1.685-16.35-1.685-16.35l-6.624.56z" fill="#000"/><path d="M114.645 31.396c-3.742 0-6.776 3.358-6.776 7.5v5.264h1.623l.94-1.95-.235 1.95h10.431l.854-1.773-.214 1.773h1.175v-4.133c0-4.767-3.491-8.631-7.798-8.631z" fill="#2F2E41"/><path d="M103.378 78.833s-1.347 5.711.449 6.271c1.797.56 1.347-6.271 1.347-6.271h-1.796z" fill="#FBBEBE"/><path d="M105.623 49.828l-.898 1.008.225 19.374-2.021 9.183 4.491.448 2.245-18.478-.674-9.407-3.368-2.128z" fill="#D0CDE1"/><path opacity=".1" d="M105.583 49.828l-.898 1.008.224 19.374-2.021 9.183 4.491.448 2.245-18.478-.673-9.407-3.368-2.128z" fill="#000"/><path d="M114.046 43.425a4.818 4.818 0 004.824-4.812 4.818 4.818 0 00-4.824-4.812 4.818 4.818 0 00-4.824 4.812 4.818 4.818 0 004.824 4.812z" fill="#FBBEBE"/><path d="M111.28 41.5s1.415 7.314.772 8.084c-.644.77 6.817-1.412 6.817-1.412s-2.444-5.004-1.157-7.827L111.28 41.5zM123.475 73.57s1.347 5.711-.449 6.271c-1.797.56-1.348-6.271-1.348-6.271h1.797zM113.089 79.337s-1.908 11.423-1.796 13.102c.112 1.68 0 1.904 0 1.904s-1.908 4.928-2.47 7.727c-.561 2.8-1.796 6.384-1.796 6.384s-1.46 3.247-.225 3.247c1.235 0 2.919-.448 2.919-.448a5.713 5.713 0 011.235-3.565c1.348-1.698 5.389-9.65 5.389-10.657 0-1.008.674-3.92.674-3.92l2.582-12.43-6.512-1.344z" fill="#FBBEBE"/><path d="M105.23 71.722s-1.908 9.63-.224 9.855c1.684.224 4.042-1.456 7.073.448 3.031 1.903 8.083 1.456 8.083 1.456s3.481-8.847.337-10.975c-3.143-2.128-15.269-.784-15.269-.784zM107.364 110.357a3 3 0 011.571-.223 2.062 2.062 0 001.46-.336s-.898 3.247-.786 4.479c.112 1.232-.337 6.495-2.695 5.935-2.357-.56-3.031-2.239-2.133-5.151.898-2.912.674-6.271.674-6.271s1.638-1.689 1.942-1.46c.303.228-.033 3.027-.033 3.027z" fill="#2F2E41"/><path d="M114.886 114.501s-1.123-2.464-2.47-.224c-1.347 2.24-1.46 2.8-1.46 2.8s-3.817 3.471-1.122 3.807c2.694.336 4.827-.112 4.827-.672s1.348-.448 1.46-.896c.112-.448-.225-4.591-.225-4.591l-1.01-.224z" fill="#2F2E41"/><path d="M117.412 45.237s-4.715.896-5.277.784a2.78 2.78 0 00-.382-.04 5.684 5.684 0 00-3.134.774c-1.564.906-3.894 2.519-3.894 4.081 0 2.352 3.032 6.383 3.032 6.383s-2.807 9.631-2.582 10.527c.224.896-1.685 3.92-.45 4.928s13.024 0 15.157 1.008c2.133 1.007 1.123-13.439 1.123-13.439s5.725-13.102 2.806-14.334a37.66 37.66 0 00-2.43-.934 5.15 5.15 0 00-3.969.262z" fill="#D0CDE1"/><path d="M121.791 46.02l2.576.425s1.129 1.144 1.129 1.704-.225 24.749-.562 25.533c-.336.784-4.041.448-4.041.448l.673-13.775.225-14.334z" fill="#D0CDE1"/><path d="M116.572 33.462a3.563 3.563 0 00-2.804-1.427h-.133c-2.565 0-4.645 2.315-4.645 5.17h.86l.138-1.053.204 1.054h5.097l.427-.892-.106.892h1.003c.467 2.318-.205 4.636-2.018 6.954h1.709l.854-1.783-.214 1.783h3.257l.64-4.101c0-3.072-1.789-5.676-4.269-6.597z" fill="#2F2E41"/><path d="M117.508 33.894a2.535 2.535 0 002.538-2.532 2.535 2.535 0 00-2.538-2.531 2.535 2.535 0 00-2.538 2.531 2.535 2.535 0 002.538 2.532z" fill="#2F2E41"/><path d="M88.87 28.345h-.657V10.391a10.369 10.369 0 00-3.052-7.348A10.42 10.42 0 0077.795 0H39.661a10.44 10.44 0 00-7.366 3.043 10.39 10.39 0 00-3.051 7.348v98.496a10.37 10.37 0 003.05 7.348 10.425 10.425 0 007.366 3.043h38.135a10.426 10.426 0 009.624-6.414c.524-1.261.794-2.612.794-3.977V41.125h.657v-12.78z" fill="#3F3D56"/><path opacity=".2" d="M78.215 2.703h-4.977a3.679 3.679 0 01-1.685 4.647 3.703 3.703 0 01-1.737.433H47.968a3.703 3.703 0 01-3.067-1.63 3.68 3.68 0 01-.355-3.45h-4.65a7.797 7.797 0 00-5.5 2.273 7.758 7.758 0 00-2.279 5.487v98.352a7.746 7.746 0 002.279 5.487 7.797 7.797 0 005.501 2.273h38.317a7.797 7.797 0 005.501-2.273 7.756 7.756 0 002.279-5.487V10.463a7.742 7.742 0 00-2.279-5.487 7.782 7.782 0 00-5.5-2.273z" fill="#000"/><path d="M69.168 68.586h7.382v-1.772h-7.382v1.772zM43.604 68.586h2.597v-1.772h-2.597v1.772zM38.41 68.586h2.597v-1.772h-2.598v1.772zM48.935 68.586h17.636v-1.772H48.935v1.772zM52.9 80.04h2.597v-1.772H52.9v1.773zM47.705 80.04h2.598v-1.772h-2.598v1.773zM58.231 80.04h17.636v-1.772H58.23v1.773zM47.978 72.541h7.383v-1.773h-7.383v1.773zM37.999 72.541h7.382v-1.773H38v1.773zM78.054 72.541h2.598v-1.773h-2.598v1.773zM57.822 72.541h17.635v-1.773H57.822v1.773zM70.672 74.586H63.29v1.773h7.382v-1.773zM80.652 74.586h-7.383v1.773h7.383v-1.773zM40.596 74.586H38v1.773h2.597v-1.773zM60.83 74.586H43.193v1.773h17.635v-1.773zM59.086 51.9c7.79 0 14.106-6.299 14.106-14.07 0-7.77-6.316-14.07-14.106-14.07s-14.105 6.3-14.105 14.07c0 7.771 6.315 14.07 14.105 14.07z" fill="#3949AB"/><path d="M58.078 42.856a4.528 4.528 0 004.534-4.523 4.528 4.528 0 00-4.534-4.522 4.528 4.528 0 00-4.534 4.522 4.528 4.528 0 004.534 4.523z" fill="#fff"/><path d="M58.216 38.604c-.282-.433-.14-1.022-.337-1.5-.31-.749-1.276-.925-2.087-.993a6.235 6.235 0 00-1.616.004 1.554 1.554 0 00-1.121.811c-.12.24-.09-.511-.013-1.476a4.656 4.656 0 011.11-2.668 4.676 4.676 0 012.474-1.503l.034-.008c.987-.227 2.004-.394 3.01-.276 1.005.118 2.007.551 2.635 1.343.286.363.49.79.81 1.123.562.585 1.396.798 2.162 1.07.866.307 1.708.729 2.37 1.364.663.636 1.133 1.508 1.147 2.425.016 1.07-.666 2.173-1.765 2.384a1.236 1.236 0 00-.528.227c-1.049.812.148 1.661.14 2.575-.007.763-.858 1.26-1.622 1.295a3.082 3.082 0 01-1.969-.665 3.068 3.068 0 01-1.095-1.763c-.115-.626-.026-1.269.049-1.9.085-.724-1.476-2.427-.445-1.178.202.237.338.522.395.828.171.997-.738 1.332-1.312 1.885a2.37 2.37 0 00-.576 2.44 2.731 2.731 0 01-.498-3.452c.185-.282.423-.528.599-.817.273-.45.348-1.43-.417-1.403-.546.019-1.114.473-1.534-.172z" fill="#2F2E41"/></g><defs><clipPath id="clip0"><path fill="#fff" d="M0 0h140v121H0z"/></clipPath></defs></svg>