<svg width="160" height="50" viewBox="0 0 160 50" fill="none" xmlns="http://www.w3.org/2000/svg">
<rect x="0.290039" y="0.383179" width="81.9966" height="48.8233" rx="24.4116" fill="#8D91EB"/>
<path d="M19.9279 32.1169C17.9439 32.1169 16.4639 31.6049 15.4879 30.5809C14.5119 29.5569 14.0239 27.9089 14.0239 25.6369C14.0239 23.3489 14.5679 21.7169 15.6559 20.7409C16.7439 19.7649 18.0959 19.2769 19.7119 19.2769C20.6399 19.2769 21.4719 19.3889 22.2079 19.6129C22.9439 19.8369 23.3119 20.0929 23.3119 20.3809C23.3119 20.5889 23.2159 20.8609 23.0239 21.1969C22.8479 21.5169 22.6879 21.6769 22.5439 21.6769C22.5119 21.6769 22.4719 21.6689 22.4239 21.6529C22.3919 21.6209 22.3439 21.5969 22.2799 21.5809C21.4159 21.1969 20.5439 21.0049 19.6639 21.0049C17.3439 21.0049 16.1839 22.5329 16.1839 25.5889C16.1839 27.2849 16.4639 28.5089 17.0239 29.2609C17.5999 30.0129 18.5599 30.3889 19.9039 30.3889C20.8799 30.3889 21.7839 30.1809 22.6159 29.7649L22.8799 29.6689C23.0399 29.6689 23.2159 29.8289 23.4079 30.1489C23.5999 30.4529 23.6959 30.7009 23.6959 30.8929C23.6959 31.0849 23.5199 31.2769 23.1679 31.4689C22.8319 31.6449 22.3759 31.7969 21.7999 31.9249C21.2239 32.0529 20.5999 32.1169 19.9279 32.1169ZM27.5923 32.0209C26.9523 32.0209 26.6323 31.8449 26.6323 31.4929V14.4529C26.6323 14.1009 26.9523 13.9249 27.5923 13.9249H27.6883C28.3283 13.9249 28.6483 14.1009 28.6483 14.4529V20.9329C29.1283 20.4529 29.6803 20.0609 30.3043 19.7569C30.9443 19.4369 31.6163 19.2769 32.3203 19.2769C33.3283 19.2769 34.2163 19.5649 34.9843 20.1409C35.7523 20.7009 36.1363 21.7089 36.1363 23.1649V31.4929C36.1363 31.8449 35.8163 32.0209 35.1763 32.0209H35.0803C34.4403 32.0209 34.1203 31.8449 34.1203 31.4929V23.3569C34.1203 22.6369 33.9123 22.0689 33.4963 21.6529C33.0803 21.2369 32.4723 21.0289 31.6723 21.0289C31.0803 21.0289 30.5203 21.1969 29.9923 21.5329C29.4643 21.8529 29.0163 22.2449 28.6483 22.7089V31.4929C28.6483 31.8449 28.3283 32.0209 27.6883 32.0209H27.5923ZM44.8826 32.1169C43.0746 32.1169 41.6906 31.5729 40.7306 30.4849C39.7866 29.3969 39.3146 27.8209 39.3146 25.7569C39.3146 23.6769 39.7946 22.0769 40.7546 20.9569C41.7146 19.8369 43.0906 19.2769 44.8826 19.2769C46.6426 19.2769 47.9866 19.8369 48.9146 20.9569C49.8586 22.0609 50.3306 23.6609 50.3306 25.7569C50.3306 27.8369 49.8666 29.4209 48.9386 30.5089C48.0266 31.5809 46.6746 32.1169 44.8826 32.1169ZM44.8106 30.3889C45.9786 30.3889 46.8426 30.0129 47.4026 29.2609C47.9626 28.4929 48.2426 27.3089 48.2426 25.7089C48.2426 24.1089 47.9626 22.9249 47.4026 22.1569C46.8426 21.3889 45.9786 21.0049 44.8106 21.0049C43.6426 21.0049 42.7866 21.3889 42.2426 22.1569C41.6986 22.9089 41.4266 24.0929 41.4266 25.7089C41.4266 27.3089 41.6986 28.4929 42.2426 29.2609C42.7866 30.0129 43.6426 30.3889 44.8106 30.3889ZM56.4163 32.0209C55.8403 32.0209 55.5203 31.8929 55.4563 31.6369L52.2883 20.2609C52.2083 20.0209 52.1683 19.8609 52.1683 19.7809C52.1683 19.5089 52.5363 19.3729 53.2723 19.3729C53.8483 19.3729 54.1683 19.5009 54.2323 19.7569L56.2483 27.4369C56.2963 27.5809 56.3523 27.8289 56.4163 28.1809C56.4803 28.5169 56.5283 28.7729 56.5603 28.9489L56.8003 30.1969H56.8963C57.1523 28.7729 57.3363 27.8449 57.4483 27.4129L59.4403 19.7809C59.5043 19.5089 59.8163 19.3729 60.3763 19.3729H60.5443C61.1043 19.3729 61.4163 19.5089 61.4803 19.7809L63.4963 27.4129C63.6723 28.1169 63.8003 28.7329 63.8803 29.2609C63.9763 29.7729 64.0403 30.1009 64.0723 30.2449H64.1203L64.2883 29.2369C64.4643 28.3249 64.5843 27.7329 64.6483 27.4609L66.6643 19.7569C66.7283 19.5009 67.0563 19.3729 67.6483 19.3729C68.2883 19.3729 68.6083 19.5089 68.6083 19.7809C68.6083 19.8609 68.5843 19.9729 68.5363 20.1169L65.3203 31.6369C65.2563 31.8929 64.9363 32.0209 64.3603 32.0209H63.6403C63.0803 32.0209 62.7683 31.8929 62.7043 31.6369L60.7843 24.0289C60.7363 23.8369 60.6243 23.2049 60.4483 22.1329H60.4003C60.2243 23.1409 60.1123 23.7649 60.0643 24.0049L58.0963 31.6369C58.0323 31.8929 57.7123 32.0209 57.1363 32.0209H56.4163Z" fill="white"/>
<path d="M91.6523 36.9169C90.6923 36.9169 90.2123 36.6609 90.2123 36.1489V23.6449C90.2123 22.9409 90.1883 22.4049 90.1403 22.0369C90.1083 21.6529 90.0603 21.2289 89.9963 20.7649C89.9483 20.5409 89.9243 20.3729 89.9243 20.2609C89.9243 20.0049 90.2443 19.8129 90.8843 19.6849C91.5403 19.5569 92.1163 19.4929 92.6123 19.4929C92.9003 19.4929 93.1003 19.6049 93.2123 19.8289C93.3243 20.0369 93.4043 20.2689 93.4523 20.5249C93.5163 20.7649 93.5563 20.9329 93.5723 21.0289C93.8603 20.5009 94.2843 20.0689 94.8443 19.7329C95.4203 19.3969 96.0683 19.2289 96.7883 19.2289C97.6523 19.2289 98.4203 19.4849 99.0923 19.9969C99.7803 20.4929 100.316 21.2289 100.7 22.2049C101.084 23.1809 101.276 24.3489 101.276 25.7089C101.276 27.6929 100.828 29.2689 99.9323 30.4369C99.0523 31.5889 97.8123 32.1649 96.2123 32.1649C95.2683 32.1649 94.4523 31.9169 93.7643 31.4209V36.1489C93.7643 36.6609 93.2843 36.9169 92.3243 36.9169H91.6523ZM95.4443 29.3569C96.9323 29.3569 97.6763 28.1409 97.6763 25.7089C97.6763 23.3249 97.0283 22.1329 95.7323 22.1329C94.9643 22.1329 94.3083 22.6049 93.7643 23.5489V28.9009C94.3083 29.2049 94.8683 29.3569 95.4443 29.3569ZM105.218 32.0209C104.258 32.0209 103.778 31.7649 103.778 31.2529V23.6449C103.778 22.9409 103.754 22.4049 103.706 22.0369C103.674 21.6529 103.626 21.2289 103.562 20.7649C103.514 20.5409 103.49 20.3729 103.49 20.2609C103.49 20.0049 103.81 19.8129 104.45 19.6849C105.106 19.5569 105.682 19.4929 106.178 19.4929C106.466 19.4929 106.666 19.6049 106.778 19.8289C106.89 20.0369 106.97 20.2689 107.018 20.5249C107.082 20.7809 107.122 20.9569 107.138 21.0529C107.442 20.4929 107.794 20.0529 108.194 19.7329C108.61 19.3969 109.13 19.2289 109.754 19.2289C110.298 19.2289 110.658 19.3409 110.834 19.5649C111.026 19.7729 111.122 20.0929 111.122 20.5249C111.122 20.8609 111.05 21.2849 110.906 21.7969C110.762 22.2929 110.586 22.5409 110.378 22.5409C110.282 22.5409 110.114 22.5089 109.874 22.4449C109.634 22.3809 109.426 22.3489 109.25 22.3489C108.818 22.3489 108.434 22.4769 108.098 22.7329C107.778 22.9729 107.522 23.2449 107.33 23.5489V31.2529C107.33 31.7649 106.85 32.0209 105.89 32.0209H105.218ZM117.45 32.1649C115.546 32.1649 114.098 31.6129 113.106 30.5089C112.114 29.3889 111.618 27.7809 111.618 25.6849C111.618 23.5889 112.114 21.9889 113.106 20.8849C114.098 19.7809 115.546 19.2289 117.45 19.2289C119.354 19.2289 120.794 19.7809 121.77 20.8849C122.762 21.9889 123.258 23.5889 123.258 25.6849C123.258 27.7809 122.762 29.3889 121.77 30.5089C120.794 31.6129 119.354 32.1649 117.45 32.1649ZM117.45 29.3569C118.202 29.3569 118.754 29.0529 119.106 28.4449C119.474 27.8209 119.658 26.9009 119.658 25.6849C119.658 24.4689 119.474 23.5569 119.106 22.9489C118.754 22.3409 118.202 22.0369 117.45 22.0369C116.698 22.0369 116.138 22.3409 115.77 22.9489C115.402 23.5569 115.218 24.4689 115.218 25.6849C115.218 28.1329 115.962 29.3569 117.45 29.3569ZM127.202 32.0209C126.242 32.0209 125.762 31.7649 125.762 31.2529V23.6449C125.762 22.9409 125.738 22.4049 125.69 22.0369C125.658 21.6529 125.61 21.2289 125.546 20.7649C125.498 20.5409 125.474 20.3729 125.474 20.2609C125.474 20.0049 125.794 19.8129 126.434 19.6849C127.09 19.5569 127.666 19.4929 128.162 19.4929C128.45 19.4929 128.65 19.6049 128.762 19.8289C128.874 20.0369 128.954 20.2689 129.002 20.5249C129.066 20.7809 129.106 20.9569 129.122 21.0529C129.506 20.5409 130.018 20.1089 130.658 19.7569C131.298 19.4049 131.978 19.2289 132.698 19.2289C133.898 19.2289 134.786 19.5489 135.362 20.1889C135.938 20.8129 136.226 21.7889 136.226 23.1169V31.2529C136.226 31.7649 135.746 32.0209 134.786 32.0209H134.114C133.154 32.0209 132.674 31.7649 132.674 31.2529V23.6449C132.674 23.1489 132.562 22.7809 132.338 22.5409C132.114 22.2849 131.746 22.1569 131.234 22.1569C130.802 22.1569 130.418 22.3009 130.082 22.5889C129.762 22.8609 129.506 23.1809 129.314 23.5489V31.2529C129.314 31.7649 128.834 32.0209 127.874 32.0209H127.202ZM142.986 32.1649C140.65 32.1649 139.482 30.8689 139.482 28.2769V22.2289H139.098C138.842 22.2289 138.658 22.1329 138.546 21.9409C138.434 21.7489 138.378 21.4449 138.378 21.0289V20.6209C138.378 20.2049 138.434 19.9009 138.546 19.7089C138.658 19.5169 138.842 19.4209 139.098 19.4209H139.482L139.794 17.1409C139.874 16.6289 140.306 16.3729 141.09 16.3729H141.834C142.634 16.3729 143.034 16.6289 143.034 17.1409V19.4209H144.21C144.466 19.4209 144.65 19.5169 144.762 19.7089C144.874 19.9009 144.93 20.2049 144.93 20.6209V21.0289C144.93 21.4449 144.874 21.7489 144.762 21.9409C144.65 22.1329 144.466 22.2289 144.21 22.2289H143.034V28.3249C143.034 28.6929 143.098 28.9569 143.226 29.1169C143.37 29.2769 143.594 29.3569 143.898 29.3569C143.978 29.3569 144.082 29.3409 144.21 29.3089C144.354 29.2769 144.466 29.2609 144.546 29.2609C144.69 29.2609 144.818 29.3809 144.93 29.6209C145.042 29.8609 145.13 30.1249 145.194 30.4129C145.258 30.7009 145.29 30.8929 145.29 30.9889C145.29 31.7729 144.522 32.1649 142.986 32.1649ZM152.677 32.1649C150.773 32.1649 149.325 31.6129 148.333 30.5089C147.341 29.3889 146.845 27.7809 146.845 25.6849C146.845 23.5889 147.341 21.9889 148.333 20.8849C149.325 19.7809 150.773 19.2289 152.677 19.2289C154.581 19.2289 156.021 19.7809 156.997 20.8849C157.989 21.9889 158.485 23.5889 158.485 25.6849C158.485 27.7809 157.989 29.3889 156.997 30.5089C156.021 31.6129 154.581 32.1649 152.677 32.1649ZM152.677 29.3569C153.429 29.3569 153.981 29.0529 154.333 28.4449C154.701 27.8209 154.885 26.9009 154.885 25.6849C154.885 24.4689 154.701 23.5569 154.333 22.9489C153.981 22.3409 153.429 22.0369 152.677 22.0369C151.925 22.0369 151.365 22.3409 150.997 22.9489C150.629 23.5569 150.445 24.4689 150.445 25.6849C150.445 28.1329 151.189 29.3569 152.677 29.3569Z" fill="#333333"/>
</svg>
