<?xml version="1.0" standalone="no"?>
<!DOCTYPE svg PUBLIC "-//W3C//DTD SVG 20010904//EN"
 "http://www.w3.org/TR/2001/REC-SVG-20010904/DTD/svg10.dtd">
<svg version="1.0" xmlns="http://www.w3.org/2000/svg"
 width="700.000000pt" height="700.000000pt" viewBox="0 0 700.000000 700.000000"
 preserveAspectRatio="xMidYMid meet">
<metadata>
Created by potrace 1.11, written by Peter Selinger 2001-2013
</metadata>
<g transform="translate(0.000000,700.000000) scale(0.100000,-0.100000)"
fill="#000000" stroke="none">
<path d="M2561 6150 c-1171 -113 -2139 -966 -2395 -2112 -46 -206 -60 -344
-60 -593 1 -263 19 -413 80 -657 240 -959 994 -1712 1959 -1958 187 -48 325
-69 530 -80 419 -23 839 43 1188 186 110 45 292 133 357 173 19 11 41 21 48
21 9 0 12 -100 12 -467 0 -542 -5 -513 98 -561 55 -26 64 -27 263 -30 166 -3
219 -1 270 13 75 19 129 58 146 106 9 25 12 180 12 562 1 290 4 527 7 527 3 0
19 -9 35 -21 52 -37 176 -89 266 -111 121 -30 356 -30 489 0 193 44 341 122
472 250 201 197 330 483 377 840 19 137 21 469 5 612 -67 607 -352 1018 -778
1122 -120 29 -294 29 -412 0 -195 -48 -353 -153 -460 -304 l-47 -66 -22 94
c-27 111 -65 190 -104 218 -25 19 -42 21 -140 19 -118 -1 -337 -33 -409 -58
-42 -15 -43 -14 -65 10 -79 90 -155 280 -172 430 -12 98 -1 240 24 323 8 26
15 50 15 53 0 3 -30 9 -66 12 -229 22 -464 150 -599 328 -57 76 -126 218 -150
309 -26 102 -31 270 -11 370 23 113 66 221 121 304 25 38 45 70 45 72 0 5
-106 25 -235 45 -149 23 -537 34 -694 19z m350 -1388 c142 -30 236 -60 313
-100 83 -43 109 -78 103 -139 -9 -86 -107 -252 -158 -268 -12 -4 -58 9 -118
34 -195 80 -404 118 -590 108 -378 -21 -591 -221 -683 -639 -20 -93 -23 -130
-23 -383 0 -230 4 -298 19 -380 68 -371 217 -558 506 -637 76 -21 106 -23 290
-23 242 1 318 15 516 95 69 27 138 50 154 50 59 0 170 -171 170 -262 0 -54
-18 -81 -84 -122 -93 -59 -268 -114 -451 -143 -161 -26 -489 -23 -645 5 -594
107 -885 446 -960 1117 -13 119 -13 470 1 593 22 209 86 428 165 570 153 273
469 477 834 537 128 21 513 13 641 -13z m2751 -1445 c182 -89 269 -332 270
-752 0 -99 -5 -217 -12 -263 -37 -274 -131 -441 -289 -516 -125 -58 -332 -46
-501 30 -42 19 -60 32 -60 45 0 10 33 69 74 131 134 204 256 473 327 720 l30
103 -23 18 c-55 43 -153 146 -188 197 -44 65 -90 153 -90 174 0 18 60 70 113
98 76 39 118 48 208 45 69 -2 96 -8 141 -30z"/>
</g>
</svg>
