<?xml version="1.0" encoding="UTF-8" standalone="no"?><svg xmlns="http://www.w3.org/2000/svg" xmlns:xlink="http://www.w3.org/1999/xlink" contentScriptType="application/ecmascript" contentStyleType="text/css" height="559px" preserveAspectRatio="none" style="width:522px;height:559px;" version="1.1" viewBox="0 0 522 559" width="522px" zoomAndPan="magnify"><defs><filter height="300%" id="fuzjd5sr0o303" width="300%" x="-1" y="-1"><feGaussianBlur result="blurOut" stdDeviation="2.0"/><feColorMatrix in="blurOut" result="blurOut2" type="matrix" values="0 0 0 0 0 0 0 0 0 0 0 0 0 0 0 0 0 0 .4 0"/><feOffset dx="4.0" dy="4.0" in="blurOut2" result="blurOut3"/><feBlend in="SourceGraphic" in2="blurOut3" mode="normal"/></filter></defs><g><!--class MenuItem--><rect fill="#FEFECE" filter="url(#fuzjd5sr0o303)" height="99.8203" id="MenuItem" style="stroke: #A80036; stroke-width: 1.5;" width="108" x="377" y="449"/><ellipse cx="401" cy="465" fill="#ADD1B2" rx="11" ry="11" style="stroke: #A80036; stroke-width: 1.0;"/><path d="M403.4731,471.1431 Q402.8921,471.4419 402.2529,471.5913 Q401.6138,471.7407 400.9082,471.7407 Q398.4014,471.7407 397.0815,470.0889 Q395.7617,468.437 395.7617,465.3159 Q395.7617,462.1865 397.0815,460.5347 Q398.4014,458.8828 400.9082,458.8828 Q401.6138,458.8828 402.2612,459.0322 Q402.9087,459.1816 403.4731,459.4805 L403.4731,462.2031 Q402.8423,461.6221 402.2488,461.3523 Q401.6553,461.0825 401.0244,461.0825 Q399.6797,461.0825 398.9949,462.1492 Q398.3101,463.2158 398.3101,465.3159 Q398.3101,467.4077 398.9949,468.4744 Q399.6797,469.541 401.0244,469.541 Q401.6553,469.541 402.2488,469.2712 Q402.8423,469.0015 403.4731,468.4204 Z "/><text fill="#000000" font-family="sans-serif" font-size="12" lengthAdjust="spacingAndGlyphs" textLength="56" x="417" y="469.5352">MenuItem</text><line style="stroke: #A80036; stroke-width: 1.5;" x1="378" x2="484" y1="481" y2="481"/><text fill="#000000" font-family="sans-serif" font-size="11" lengthAdjust="spacingAndGlyphs" textLength="64" x="383" y="495.6348">String name</text><text fill="#000000" font-family="sans-serif" font-size="11" lengthAdjust="spacingAndGlyphs" textLength="96" x="383" y="508.5898">String description</text><text fill="#000000" font-family="sans-serif" font-size="11" lengthAdjust="spacingAndGlyphs" textLength="88" x="383" y="521.5449">Integer unitPrice</text><text fill="#000000" font-family="sans-serif" font-size="11" lengthAdjust="spacingAndGlyphs" textLength="85" x="383" y="534.5">boolean inStock</text><line style="stroke: #A80036; stroke-width: 1.5;" x1="378" x2="484" y1="540.8203" y2="540.8203"/><!--class OrderItem--><rect fill="#FEFECE" filter="url(#fuzjd5sr0o303)" height="60.9551" id="OrderItem" style="stroke: #A80036; stroke-width: 1.5;" width="97" x="395.5" y="302"/><ellipse cx="413.2" cy="318" fill="#ADD1B2" rx="11" ry="11" style="stroke: #A80036; stroke-width: 1.0;"/><path d="M415.6731,324.1431 Q415.0921,324.4419 414.4529,324.5913 Q413.8138,324.7407 413.1082,324.7407 Q410.6014,324.7407 409.2815,323.0889 Q407.9617,321.437 407.9617,318.3159 Q407.9617,315.1865 409.2815,313.5347 Q410.6014,311.8828 413.1082,311.8828 Q413.8138,311.8828 414.4612,312.0322 Q415.1087,312.1816 415.6731,312.4805 L415.6731,315.2031 Q415.0423,314.6221 414.4488,314.3523 Q413.8553,314.0825 413.2244,314.0825 Q411.8797,314.0825 411.1949,315.1492 Q410.5101,316.2158 410.5101,318.3159 Q410.5101,320.4077 411.1949,321.4744 Q411.8797,322.541 413.2244,322.541 Q413.8553,322.541 414.4488,322.2712 Q415.0423,322.0015 415.6731,321.4204 Z "/><text fill="#000000" font-family="sans-serif" font-size="12" lengthAdjust="spacingAndGlyphs" textLength="59" x="427.8" y="322.5352">OrderItem</text><line style="stroke: #A80036; stroke-width: 1.5;" x1="396.5" x2="491.5" y1="334" y2="334"/><text fill="#000000" font-family="sans-serif" font-size="11" lengthAdjust="spacingAndGlyphs" textLength="85" x="401.5" y="348.6348">Integer quantity</text><line style="stroke: #A80036; stroke-width: 1.5;" x1="396.5" x2="491.5" y1="354.9551" y2="354.9551"/><!--class Vendor--><rect fill="#FEFECE" filter="url(#fuzjd5sr0o303)" height="112.7754" id="Vendor" style="stroke: #A80036; stroke-width: 1.5;" width="172" x="188" y="276"/><ellipse cx="248.75" cy="292" fill="#ADD1B2" rx="11" ry="11" style="stroke: #A80036; stroke-width: 1.0;"/><path d="M251.2231,298.1431 Q250.6421,298.4419 250.0029,298.5913 Q249.3638,298.7407 248.6582,298.7407 Q246.1514,298.7407 244.8315,297.0889 Q243.5117,295.437 243.5117,292.3159 Q243.5117,289.1865 244.8315,287.5347 Q246.1514,285.8828 248.6582,285.8828 Q249.3638,285.8828 250.0112,286.0322 Q250.6587,286.1816 251.2231,286.4805 L251.2231,289.2031 Q250.5923,288.6221 249.9988,288.3523 Q249.4053,288.0825 248.7744,288.0825 Q247.4297,288.0825 246.7449,289.1492 Q246.0601,290.2158 246.0601,292.3159 Q246.0601,294.4077 246.7449,295.4744 Q247.4297,296.541 248.7744,296.541 Q249.4053,296.541 249.9988,296.2712 Q250.5923,296.0015 251.2231,295.4204 Z "/><text fill="#000000" font-family="sans-serif" font-size="12" lengthAdjust="spacingAndGlyphs" textLength="42" x="269.25" y="296.5352">Vendor</text><line style="stroke: #A80036; stroke-width: 1.5;" x1="189" x2="359" y1="308" y2="308"/><text fill="#000000" font-family="sans-serif" font-size="11" lengthAdjust="spacingAndGlyphs" textLength="64" x="194" y="322.6348">String name</text><text fill="#000000" font-family="sans-serif" font-size="11" lengthAdjust="spacingAndGlyphs" textLength="78" x="194" y="335.5898">String location</text><text fill="#000000" font-family="sans-serif" font-size="11" lengthAdjust="spacingAndGlyphs" textLength="96" x="194" y="348.5449">String description</text><text fill="#000000" font-family="sans-serif" font-size="11" lengthAdjust="spacingAndGlyphs" textLength="75" x="194" y="361.5">String logoUrl</text><text fill="#000000" font-family="sans-serif" font-size="11" lengthAdjust="spacingAndGlyphs" textLength="160" x="194" y="374.4551">[]OpeningTime openingHours</text><line style="stroke: #A80036; stroke-width: 1.5;" x1="189" x2="359" y1="380.7754" y2="380.7754"/><!--class OpeningTime--><rect fill="#FEFECE" filter="url(#fuzjd5sr0o303)" height="86.8652" id="OpeningTime" style="stroke: #A80036; stroke-width: 1.5;" width="109" x="219.5" y="455.5"/><ellipse cx="234.5" cy="471.5" fill="#ADD1B2" rx="11" ry="11" style="stroke: #A80036; stroke-width: 1.0;"/><path d="M236.9731,477.6431 Q236.3921,477.9419 235.7529,478.0913 Q235.1138,478.2407 234.4082,478.2407 Q231.9014,478.2407 230.5815,476.5889 Q229.2617,474.937 229.2617,471.8159 Q229.2617,468.6865 230.5815,467.0347 Q231.9014,465.3828 234.4082,465.3828 Q235.1138,465.3828 235.7612,465.5322 Q236.4087,465.6816 236.9731,465.9805 L236.9731,468.7031 Q236.3423,468.1221 235.7488,467.8523 Q235.1553,467.5825 234.5244,467.5825 Q233.1797,467.5825 232.4949,468.6492 Q231.8101,469.7158 231.8101,471.8159 Q231.8101,473.9077 232.4949,474.9744 Q233.1797,476.041 234.5244,476.041 Q235.1553,476.041 235.7488,475.7712 Q236.3423,475.5015 236.9731,474.9204 Z "/><text fill="#000000" font-family="sans-serif" font-size="12" lengthAdjust="spacingAndGlyphs" textLength="77" x="248.5" y="476.0352">OpeningTime</text><line style="stroke: #A80036; stroke-width: 1.5;" x1="220.5" x2="327.5" y1="487.5" y2="487.5"/><text fill="#000000" font-family="sans-serif" font-size="11" lengthAdjust="spacingAndGlyphs" textLength="45" x="225.5" y="502.1348">DAY day</text><text fill="#000000" font-family="sans-serif" font-size="11" lengthAdjust="spacingAndGlyphs" textLength="78" x="225.5" y="515.0898">Date startTime</text><text fill="#000000" font-family="sans-serif" font-size="11" lengthAdjust="spacingAndGlyphs" textLength="73" x="225.5" y="528.0449">Date endTime</text><line style="stroke: #A80036; stroke-width: 1.5;" x1="220.5" x2="327.5" y1="534.3652" y2="534.3652"/><path d="M6,486.5 L6,511.8105 A0,0 0 0 0 6,511.8105 L184,511.8105 A0,0 0 0 0 184,511.8105 L184,504.5 L219.25,499 L184,496.5 L184,496.5 L174,486.5 L6,486.5 A0,0 0 0 0 6,486.5 " fill="#FBFB77" filter="url(#fuzjd5sr0o303)" style="stroke: #A80036; stroke-width: 1.0;"/><path d="M174,486.5 L174,496.5 L184,496.5 L174,486.5 " fill="#FBFB77" style="stroke: #A80036; stroke-width: 1.0;"/><text fill="#000000" font-family="sans-serif" font-size="13" lengthAdjust="spacingAndGlyphs" textLength="157" x="12" y="504.0684">Date just refers to a time</text><!--class User--><rect fill="#FEFECE" filter="url(#fuzjd5sr0o303)" height="86.8652" id="User" style="stroke: #A80036; stroke-width: 1.5;" width="134" x="377" y="8"/><ellipse cx="426.75" cy="24" fill="#ADD1B2" rx="11" ry="11" style="stroke: #A80036; stroke-width: 1.0;"/><path d="M429.2231,30.1431 Q428.6421,30.4419 428.0029,30.5913 Q427.3638,30.7407 426.6582,30.7407 Q424.1514,30.7407 422.8315,29.0889 Q421.5117,27.437 421.5117,24.3159 Q421.5117,21.1865 422.8315,19.5347 Q424.1514,17.8828 426.6582,17.8828 Q427.3638,17.8828 428.0112,18.0322 Q428.6587,18.1816 429.2231,18.4805 L429.2231,21.2031 Q428.5923,20.6221 427.9988,20.3523 Q427.4053,20.0825 426.7744,20.0825 Q425.4297,20.0825 424.7449,21.1492 Q424.0601,22.2158 424.0601,24.3159 Q424.0601,26.4077 424.7449,27.4744 Q425.4297,28.541 426.7744,28.541 Q427.4053,28.541 427.9988,28.2712 Q428.5923,28.0015 429.2231,27.4204 Z "/><text fill="#000000" font-family="sans-serif" font-size="12" lengthAdjust="spacingAndGlyphs" textLength="26" x="447.25" y="28.5352">User</text><line style="stroke: #A80036; stroke-width: 1.5;" x1="378" x2="510" y1="40" y2="40"/><text fill="#000000" font-family="sans-serif" font-size="11" lengthAdjust="spacingAndGlyphs" textLength="88" x="383" y="54.6348">String username</text><text fill="#000000" font-family="sans-serif" font-size="11" lengthAdjust="spacingAndGlyphs" textLength="87" x="383" y="67.5898">String password</text><text fill="#000000" font-family="sans-serif" font-size="11" lengthAdjust="spacingAndGlyphs" textLength="122" x="383" y="80.5449">String primaryAddress</text><line style="stroke: #A80036; stroke-width: 1.5;" x1="378" x2="510" y1="86.8652" y2="86.8652"/><!--class Order--><rect fill="#FEFECE" filter="url(#fuzjd5sr0o303)" height="60.9551" id="Order" style="stroke: #A80036; stroke-width: 1.5;" width="105" x="391.5" y="155"/><ellipse cx="424.05" cy="171" fill="#ADD1B2" rx="11" ry="11" style="stroke: #A80036; stroke-width: 1.0;"/><path d="M426.5231,177.1431 Q425.9421,177.4419 425.3029,177.5913 Q424.6638,177.7407 423.9582,177.7407 Q421.4514,177.7407 420.1315,176.0889 Q418.8117,174.437 418.8117,171.3159 Q418.8117,168.1865 420.1315,166.5347 Q421.4514,164.8828 423.9582,164.8828 Q424.6638,164.8828 425.3112,165.0322 Q425.9587,165.1816 426.5231,165.4805 L426.5231,168.2031 Q425.8923,167.6221 425.2988,167.3523 Q424.7053,167.0825 424.0744,167.0825 Q422.7297,167.0825 422.0449,168.1492 Q421.3601,169.2158 421.3601,171.3159 Q421.3601,173.4077 422.0449,174.4744 Q422.7297,175.541 424.0744,175.541 Q424.7053,175.541 425.2988,175.2712 Q425.8923,175.0015 426.5231,174.4204 Z "/><text fill="#000000" font-family="sans-serif" font-size="12" lengthAdjust="spacingAndGlyphs" textLength="34" x="441.95" y="175.5352">Order</text><line style="stroke: #A80036; stroke-width: 1.5;" x1="392.5" x2="495.5" y1="187" y2="187"/><text fill="#000000" font-family="sans-serif" font-size="11" lengthAdjust="spacingAndGlyphs" textLength="93" x="397.5" y="201.6348">Date deliveryDate</text><line style="stroke: #A80036; stroke-width: 1.5;" x1="392.5" x2="495.5" y1="207.9551" y2="207.9551"/><!--link Vendor to MenuItem--><path d="M327.15,389.19 C345.66,408.58 366.26,430.17 384.21,448.98 " fill="none" id="Vendor-MenuItem" style="stroke: #A80036; stroke-width: 1.0;"/><text fill="#000000" font-family="sans-serif" font-size="13" lengthAdjust="spacingAndGlyphs" textLength="8" x="324.833" y="409.2113">1</text><text fill="#000000" font-family="sans-serif" font-size="13" lengthAdjust="spacingAndGlyphs" textLength="22" x="353.7221" y="438.1361">1..*</text><!--link Vendor to OpeningTime--><path d="M274,389.19 C274,410.82 274,435.18 274,455.37 " fill="none" id="Vendor-OpeningTime" style="stroke: #A80036; stroke-width: 1.0;"/><text fill="#000000" font-family="sans-serif" font-size="13" lengthAdjust="spacingAndGlyphs" textLength="8" x="265.5375" y="409.2113">1</text><text fill="#000000" font-family="sans-serif" font-size="13" lengthAdjust="spacingAndGlyphs" textLength="22" x="250.2469" y="444.825">1..*</text><!--link Order to OrderItem--><path d="M444,216.19 C444,241.21 444,276.84 444,301.85 " fill="none" id="Order-OrderItem" style="stroke: #A80036; stroke-width: 1.0;"/><text fill="#000000" font-family="sans-serif" font-size="13" lengthAdjust="spacingAndGlyphs" textLength="8" x="435.175" y="236.6717">1</text><text fill="#000000" font-family="sans-serif" font-size="13" lengthAdjust="spacingAndGlyphs" textLength="22" x="419.5938" y="291.1119">1..*</text><!--link OrderItem to MenuItem--><path d="M441.65,363.29 C439.77,387.08 437.09,420.93 434.89,448.75 " fill="none" id="OrderItem-MenuItem" style="stroke: #A80036; stroke-width: 1.0;"/><text fill="#000000" font-family="sans-serif" font-size="13" lengthAdjust="spacingAndGlyphs" textLength="8" x="432.3998" y="383.4317">1</text><text fill="#000000" font-family="sans-serif" font-size="13" lengthAdjust="spacingAndGlyphs" textLength="22" x="411.8902" y="438.2317">1..*</text><!--link User to Order--><path d="M444,95.36 C444,114.78 444,137.26 444,154.79 " fill="none" id="User-Order" style="stroke: #A80036; stroke-width: 1.0;"/><text fill="#000000" font-family="sans-serif" font-size="13" lengthAdjust="spacingAndGlyphs" textLength="8" x="435.4125" y="115.5046">1</text><text fill="#000000" font-family="sans-serif" font-size="13" lengthAdjust="spacingAndGlyphs" textLength="22" x="419.5938" y="144.0388">1..*</text><!--
@startuml
class MenuItem {
  String name
  String description
  Integer unitPrice
  boolean inStock
}

class OrderItem {
  Integer quantity
}

class Vendor {
  String name
  String location
  String description
  String logoUrl
  []OpeningTime openingHours
}

class OpeningTime {
  DAY day
  Date startTime
  Date endTime
}
note left: Date just refers to a time

class User {
  String username
  String password
  String primaryAddress
}

class Order {
  Date deliveryDate  
}

Vendor "1" - - "1..*" MenuItem
Vendor "1" - - "1..*" OpeningTime
Order "1" - - "1..*" OrderItem
OrderItem "1" - - "1..*" MenuItem
User "1" - - "1..*" Order

@enduml

PlantUML version 1.2019.09(Mon Aug 26 17:19:51 BST 2019)
(GPL source distribution)
Java Runtime: Java(TM) SE Runtime Environment
JVM: Java HotSpot(TM) 64-Bit Server VM
Java Version: 13.0.1+9
Operating System: Mac OS X
OS Version: 10.15.4
Default Encoding: UTF-8
Language: en
Country: GB
--></g></svg>